%TF.GenerationSoftware,KiCad,Pcbnew,7.0.6*%
%TF.CreationDate,2023-07-26T14:22:16+03:00*%
%TF.ProjectId,Accelerometru,41636365-6c65-4726-9f6d-657472752e6b,rev?*%
%TF.SameCoordinates,Original*%
%TF.FileFunction,Legend,Bot*%
%TF.FilePolarity,Positive*%
%FSLAX46Y46*%
G04 Gerber Fmt 4.6, Leading zero omitted, Abs format (unit mm)*
G04 Created by KiCad (PCBNEW 7.0.6) date 2023-07-26 14:22:16*
%MOMM*%
%LPD*%
G01*
G04 APERTURE LIST*
%ADD10C,0.150000*%
%ADD11C,0.100000*%
%ADD12C,0.508000*%
%ADD13C,0.120000*%
%ADD14C,0.152400*%
G04 APERTURE END LIST*
D10*
X194099636Y-74641609D02*
X194004398Y-74689228D01*
X194004398Y-74689228D02*
X193956779Y-74736847D01*
X193956779Y-74736847D02*
X193909160Y-74832085D01*
X193909160Y-74832085D02*
X193909160Y-74879704D01*
X193909160Y-74879704D02*
X193956779Y-74974942D01*
X193956779Y-74974942D02*
X194004398Y-75022561D01*
X194004398Y-75022561D02*
X194099636Y-75070180D01*
X194099636Y-75070180D02*
X194290112Y-75070180D01*
X194290112Y-75070180D02*
X194385350Y-75022561D01*
X194385350Y-75022561D02*
X194432969Y-74974942D01*
X194432969Y-74974942D02*
X194480588Y-74879704D01*
X194480588Y-74879704D02*
X194480588Y-74832085D01*
X194480588Y-74832085D02*
X194432969Y-74736847D01*
X194432969Y-74736847D02*
X194385350Y-74689228D01*
X194385350Y-74689228D02*
X194290112Y-74641609D01*
X194290112Y-74641609D02*
X194099636Y-74641609D01*
X194099636Y-74641609D02*
X194004398Y-74593990D01*
X194004398Y-74593990D02*
X193956779Y-74546371D01*
X193956779Y-74546371D02*
X193909160Y-74451133D01*
X193909160Y-74451133D02*
X193909160Y-74260657D01*
X193909160Y-74260657D02*
X193956779Y-74165419D01*
X193956779Y-74165419D02*
X194004398Y-74117800D01*
X194004398Y-74117800D02*
X194099636Y-74070180D01*
X194099636Y-74070180D02*
X194290112Y-74070180D01*
X194290112Y-74070180D02*
X194385350Y-74117800D01*
X194385350Y-74117800D02*
X194432969Y-74165419D01*
X194432969Y-74165419D02*
X194480588Y-74260657D01*
X194480588Y-74260657D02*
X194480588Y-74451133D01*
X194480588Y-74451133D02*
X194432969Y-74546371D01*
X194432969Y-74546371D02*
X194385350Y-74593990D01*
X194385350Y-74593990D02*
X194290112Y-74641609D01*
X196360588Y-86500180D02*
X195789160Y-86500180D01*
X196074874Y-86500180D02*
X196074874Y-87500180D01*
X196074874Y-87500180D02*
X195979636Y-87357323D01*
X195979636Y-87357323D02*
X195884398Y-87262085D01*
X195884398Y-87262085D02*
X195789160Y-87214466D01*
X197217731Y-87166847D02*
X197217731Y-86500180D01*
X196979636Y-87547800D02*
X196741541Y-86833514D01*
X196741541Y-86833514D02*
X197360588Y-86833514D01*
X188520588Y-74330180D02*
X187949160Y-74330180D01*
X188234874Y-74330180D02*
X188234874Y-75330180D01*
X188234874Y-75330180D02*
X188139636Y-75187323D01*
X188139636Y-75187323D02*
X188044398Y-75092085D01*
X188044398Y-75092085D02*
X187949160Y-75044466D01*
X190900588Y-87020180D02*
X190329160Y-87020180D01*
X190614874Y-87020180D02*
X190614874Y-88020180D01*
X190614874Y-88020180D02*
X190519636Y-87877323D01*
X190519636Y-87877323D02*
X190424398Y-87782085D01*
X190424398Y-87782085D02*
X190329160Y-87734466D01*
X213554649Y-68179819D02*
X213745125Y-68179819D01*
X213745125Y-68179819D02*
X213840363Y-68227438D01*
X213840363Y-68227438D02*
X213887982Y-68275057D01*
X213887982Y-68275057D02*
X213983220Y-68417914D01*
X213983220Y-68417914D02*
X214030839Y-68608390D01*
X214030839Y-68608390D02*
X214030839Y-68989342D01*
X214030839Y-68989342D02*
X213983220Y-69084580D01*
X213983220Y-69084580D02*
X213935601Y-69132200D01*
X213935601Y-69132200D02*
X213840363Y-69179819D01*
X213840363Y-69179819D02*
X213649887Y-69179819D01*
X213649887Y-69179819D02*
X213554649Y-69132200D01*
X213554649Y-69132200D02*
X213507030Y-69084580D01*
X213507030Y-69084580D02*
X213459411Y-68989342D01*
X213459411Y-68989342D02*
X213459411Y-68751247D01*
X213459411Y-68751247D02*
X213507030Y-68656009D01*
X213507030Y-68656009D02*
X213554649Y-68608390D01*
X213554649Y-68608390D02*
X213649887Y-68560771D01*
X213649887Y-68560771D02*
X213840363Y-68560771D01*
X213840363Y-68560771D02*
X213935601Y-68608390D01*
X213935601Y-68608390D02*
X213983220Y-68656009D01*
X213983220Y-68656009D02*
X214030839Y-68751247D01*
X219334649Y-68209819D02*
X219525125Y-68209819D01*
X219525125Y-68209819D02*
X219620363Y-68257438D01*
X219620363Y-68257438D02*
X219667982Y-68305057D01*
X219667982Y-68305057D02*
X219763220Y-68447914D01*
X219763220Y-68447914D02*
X219810839Y-68638390D01*
X219810839Y-68638390D02*
X219810839Y-69019342D01*
X219810839Y-69019342D02*
X219763220Y-69114580D01*
X219763220Y-69114580D02*
X219715601Y-69162200D01*
X219715601Y-69162200D02*
X219620363Y-69209819D01*
X219620363Y-69209819D02*
X219429887Y-69209819D01*
X219429887Y-69209819D02*
X219334649Y-69162200D01*
X219334649Y-69162200D02*
X219287030Y-69114580D01*
X219287030Y-69114580D02*
X219239411Y-69019342D01*
X219239411Y-69019342D02*
X219239411Y-68781247D01*
X219239411Y-68781247D02*
X219287030Y-68686009D01*
X219287030Y-68686009D02*
X219334649Y-68638390D01*
X219334649Y-68638390D02*
X219429887Y-68590771D01*
X219429887Y-68590771D02*
X219620363Y-68590771D01*
X219620363Y-68590771D02*
X219715601Y-68638390D01*
X219715601Y-68638390D02*
X219763220Y-68686009D01*
X219763220Y-68686009D02*
X219810839Y-68781247D01*
X222498458Y-85379819D02*
X221831792Y-85379819D01*
X221831792Y-85379819D02*
X222260363Y-86379819D01*
X216638458Y-85399819D02*
X215971792Y-85399819D01*
X215971792Y-85399819D02*
X216400363Y-86399819D01*
X182794819Y-78523333D02*
X182318628Y-78190000D01*
X182794819Y-77951905D02*
X181794819Y-77951905D01*
X181794819Y-77951905D02*
X181794819Y-78332857D01*
X181794819Y-78332857D02*
X181842438Y-78428095D01*
X181842438Y-78428095D02*
X181890057Y-78475714D01*
X181890057Y-78475714D02*
X181985295Y-78523333D01*
X181985295Y-78523333D02*
X182128152Y-78523333D01*
X182128152Y-78523333D02*
X182223390Y-78475714D01*
X182223390Y-78475714D02*
X182271009Y-78428095D01*
X182271009Y-78428095D02*
X182318628Y-78332857D01*
X182318628Y-78332857D02*
X182318628Y-77951905D01*
X182223390Y-79094762D02*
X182175771Y-78999524D01*
X182175771Y-78999524D02*
X182128152Y-78951905D01*
X182128152Y-78951905D02*
X182032914Y-78904286D01*
X182032914Y-78904286D02*
X181985295Y-78904286D01*
X181985295Y-78904286D02*
X181890057Y-78951905D01*
X181890057Y-78951905D02*
X181842438Y-78999524D01*
X181842438Y-78999524D02*
X181794819Y-79094762D01*
X181794819Y-79094762D02*
X181794819Y-79285238D01*
X181794819Y-79285238D02*
X181842438Y-79380476D01*
X181842438Y-79380476D02*
X181890057Y-79428095D01*
X181890057Y-79428095D02*
X181985295Y-79475714D01*
X181985295Y-79475714D02*
X182032914Y-79475714D01*
X182032914Y-79475714D02*
X182128152Y-79428095D01*
X182128152Y-79428095D02*
X182175771Y-79380476D01*
X182175771Y-79380476D02*
X182223390Y-79285238D01*
X182223390Y-79285238D02*
X182223390Y-79094762D01*
X182223390Y-79094762D02*
X182271009Y-78999524D01*
X182271009Y-78999524D02*
X182318628Y-78951905D01*
X182318628Y-78951905D02*
X182413866Y-78904286D01*
X182413866Y-78904286D02*
X182604342Y-78904286D01*
X182604342Y-78904286D02*
X182699580Y-78951905D01*
X182699580Y-78951905D02*
X182747200Y-78999524D01*
X182747200Y-78999524D02*
X182794819Y-79094762D01*
X182794819Y-79094762D02*
X182794819Y-79285238D01*
X182794819Y-79285238D02*
X182747200Y-79380476D01*
X182747200Y-79380476D02*
X182699580Y-79428095D01*
X182699580Y-79428095D02*
X182604342Y-79475714D01*
X182604342Y-79475714D02*
X182413866Y-79475714D01*
X182413866Y-79475714D02*
X182318628Y-79428095D01*
X182318628Y-79428095D02*
X182271009Y-79380476D01*
X182271009Y-79380476D02*
X182223390Y-79285238D01*
X199514819Y-71747142D02*
X199038628Y-71413809D01*
X199514819Y-71175714D02*
X198514819Y-71175714D01*
X198514819Y-71175714D02*
X198514819Y-71556666D01*
X198514819Y-71556666D02*
X198562438Y-71651904D01*
X198562438Y-71651904D02*
X198610057Y-71699523D01*
X198610057Y-71699523D02*
X198705295Y-71747142D01*
X198705295Y-71747142D02*
X198848152Y-71747142D01*
X198848152Y-71747142D02*
X198943390Y-71699523D01*
X198943390Y-71699523D02*
X198991009Y-71651904D01*
X198991009Y-71651904D02*
X199038628Y-71556666D01*
X199038628Y-71556666D02*
X199038628Y-71175714D01*
X198610057Y-72128095D02*
X198562438Y-72175714D01*
X198562438Y-72175714D02*
X198514819Y-72270952D01*
X198514819Y-72270952D02*
X198514819Y-72509047D01*
X198514819Y-72509047D02*
X198562438Y-72604285D01*
X198562438Y-72604285D02*
X198610057Y-72651904D01*
X198610057Y-72651904D02*
X198705295Y-72699523D01*
X198705295Y-72699523D02*
X198800533Y-72699523D01*
X198800533Y-72699523D02*
X198943390Y-72651904D01*
X198943390Y-72651904D02*
X199514819Y-72080476D01*
X199514819Y-72080476D02*
X199514819Y-72699523D01*
X198848152Y-73556666D02*
X199514819Y-73556666D01*
X198467200Y-73318571D02*
X199181485Y-73080476D01*
X199181485Y-73080476D02*
X199181485Y-73699523D01*
X201344819Y-68637142D02*
X200868628Y-68303809D01*
X201344819Y-68065714D02*
X200344819Y-68065714D01*
X200344819Y-68065714D02*
X200344819Y-68446666D01*
X200344819Y-68446666D02*
X200392438Y-68541904D01*
X200392438Y-68541904D02*
X200440057Y-68589523D01*
X200440057Y-68589523D02*
X200535295Y-68637142D01*
X200535295Y-68637142D02*
X200678152Y-68637142D01*
X200678152Y-68637142D02*
X200773390Y-68589523D01*
X200773390Y-68589523D02*
X200821009Y-68541904D01*
X200821009Y-68541904D02*
X200868628Y-68446666D01*
X200868628Y-68446666D02*
X200868628Y-68065714D01*
X200440057Y-69018095D02*
X200392438Y-69065714D01*
X200392438Y-69065714D02*
X200344819Y-69160952D01*
X200344819Y-69160952D02*
X200344819Y-69399047D01*
X200344819Y-69399047D02*
X200392438Y-69494285D01*
X200392438Y-69494285D02*
X200440057Y-69541904D01*
X200440057Y-69541904D02*
X200535295Y-69589523D01*
X200535295Y-69589523D02*
X200630533Y-69589523D01*
X200630533Y-69589523D02*
X200773390Y-69541904D01*
X200773390Y-69541904D02*
X201344819Y-68970476D01*
X201344819Y-68970476D02*
X201344819Y-69589523D01*
X200344819Y-70494285D02*
X200344819Y-70018095D01*
X200344819Y-70018095D02*
X200821009Y-69970476D01*
X200821009Y-69970476D02*
X200773390Y-70018095D01*
X200773390Y-70018095D02*
X200725771Y-70113333D01*
X200725771Y-70113333D02*
X200725771Y-70351428D01*
X200725771Y-70351428D02*
X200773390Y-70446666D01*
X200773390Y-70446666D02*
X200821009Y-70494285D01*
X200821009Y-70494285D02*
X200916247Y-70541904D01*
X200916247Y-70541904D02*
X201154342Y-70541904D01*
X201154342Y-70541904D02*
X201249580Y-70494285D01*
X201249580Y-70494285D02*
X201297200Y-70446666D01*
X201297200Y-70446666D02*
X201344819Y-70351428D01*
X201344819Y-70351428D02*
X201344819Y-70113333D01*
X201344819Y-70113333D02*
X201297200Y-70018095D01*
X201297200Y-70018095D02*
X201249580Y-69970476D01*
X201604819Y-86227142D02*
X201128628Y-85893809D01*
X201604819Y-85655714D02*
X200604819Y-85655714D01*
X200604819Y-85655714D02*
X200604819Y-86036666D01*
X200604819Y-86036666D02*
X200652438Y-86131904D01*
X200652438Y-86131904D02*
X200700057Y-86179523D01*
X200700057Y-86179523D02*
X200795295Y-86227142D01*
X200795295Y-86227142D02*
X200938152Y-86227142D01*
X200938152Y-86227142D02*
X201033390Y-86179523D01*
X201033390Y-86179523D02*
X201081009Y-86131904D01*
X201081009Y-86131904D02*
X201128628Y-86036666D01*
X201128628Y-86036666D02*
X201128628Y-85655714D01*
X201604819Y-87179523D02*
X201604819Y-86608095D01*
X201604819Y-86893809D02*
X200604819Y-86893809D01*
X200604819Y-86893809D02*
X200747676Y-86798571D01*
X200747676Y-86798571D02*
X200842914Y-86703333D01*
X200842914Y-86703333D02*
X200890533Y-86608095D01*
X201033390Y-87750952D02*
X200985771Y-87655714D01*
X200985771Y-87655714D02*
X200938152Y-87608095D01*
X200938152Y-87608095D02*
X200842914Y-87560476D01*
X200842914Y-87560476D02*
X200795295Y-87560476D01*
X200795295Y-87560476D02*
X200700057Y-87608095D01*
X200700057Y-87608095D02*
X200652438Y-87655714D01*
X200652438Y-87655714D02*
X200604819Y-87750952D01*
X200604819Y-87750952D02*
X200604819Y-87941428D01*
X200604819Y-87941428D02*
X200652438Y-88036666D01*
X200652438Y-88036666D02*
X200700057Y-88084285D01*
X200700057Y-88084285D02*
X200795295Y-88131904D01*
X200795295Y-88131904D02*
X200842914Y-88131904D01*
X200842914Y-88131904D02*
X200938152Y-88084285D01*
X200938152Y-88084285D02*
X200985771Y-88036666D01*
X200985771Y-88036666D02*
X201033390Y-87941428D01*
X201033390Y-87941428D02*
X201033390Y-87750952D01*
X201033390Y-87750952D02*
X201081009Y-87655714D01*
X201081009Y-87655714D02*
X201128628Y-87608095D01*
X201128628Y-87608095D02*
X201223866Y-87560476D01*
X201223866Y-87560476D02*
X201414342Y-87560476D01*
X201414342Y-87560476D02*
X201509580Y-87608095D01*
X201509580Y-87608095D02*
X201557200Y-87655714D01*
X201557200Y-87655714D02*
X201604819Y-87750952D01*
X201604819Y-87750952D02*
X201604819Y-87941428D01*
X201604819Y-87941428D02*
X201557200Y-88036666D01*
X201557200Y-88036666D02*
X201509580Y-88084285D01*
X201509580Y-88084285D02*
X201414342Y-88131904D01*
X201414342Y-88131904D02*
X201223866Y-88131904D01*
X201223866Y-88131904D02*
X201128628Y-88084285D01*
X201128628Y-88084285D02*
X201081009Y-88036666D01*
X201081009Y-88036666D02*
X201033390Y-87941428D01*
X199954819Y-74787142D02*
X199478628Y-74453809D01*
X199954819Y-74215714D02*
X198954819Y-74215714D01*
X198954819Y-74215714D02*
X198954819Y-74596666D01*
X198954819Y-74596666D02*
X199002438Y-74691904D01*
X199002438Y-74691904D02*
X199050057Y-74739523D01*
X199050057Y-74739523D02*
X199145295Y-74787142D01*
X199145295Y-74787142D02*
X199288152Y-74787142D01*
X199288152Y-74787142D02*
X199383390Y-74739523D01*
X199383390Y-74739523D02*
X199431009Y-74691904D01*
X199431009Y-74691904D02*
X199478628Y-74596666D01*
X199478628Y-74596666D02*
X199478628Y-74215714D01*
X199954819Y-75739523D02*
X199954819Y-75168095D01*
X199954819Y-75453809D02*
X198954819Y-75453809D01*
X198954819Y-75453809D02*
X199097676Y-75358571D01*
X199097676Y-75358571D02*
X199192914Y-75263333D01*
X199192914Y-75263333D02*
X199240533Y-75168095D01*
X199954819Y-76691904D02*
X199954819Y-76120476D01*
X199954819Y-76406190D02*
X198954819Y-76406190D01*
X198954819Y-76406190D02*
X199097676Y-76310952D01*
X199097676Y-76310952D02*
X199192914Y-76215714D01*
X199192914Y-76215714D02*
X199240533Y-76120476D01*
X184864819Y-86283333D02*
X184388628Y-85950000D01*
X184864819Y-85711905D02*
X183864819Y-85711905D01*
X183864819Y-85711905D02*
X183864819Y-86092857D01*
X183864819Y-86092857D02*
X183912438Y-86188095D01*
X183912438Y-86188095D02*
X183960057Y-86235714D01*
X183960057Y-86235714D02*
X184055295Y-86283333D01*
X184055295Y-86283333D02*
X184198152Y-86283333D01*
X184198152Y-86283333D02*
X184293390Y-86235714D01*
X184293390Y-86235714D02*
X184341009Y-86188095D01*
X184341009Y-86188095D02*
X184388628Y-86092857D01*
X184388628Y-86092857D02*
X184388628Y-85711905D01*
X183864819Y-87188095D02*
X183864819Y-86711905D01*
X183864819Y-86711905D02*
X184341009Y-86664286D01*
X184341009Y-86664286D02*
X184293390Y-86711905D01*
X184293390Y-86711905D02*
X184245771Y-86807143D01*
X184245771Y-86807143D02*
X184245771Y-87045238D01*
X184245771Y-87045238D02*
X184293390Y-87140476D01*
X184293390Y-87140476D02*
X184341009Y-87188095D01*
X184341009Y-87188095D02*
X184436247Y-87235714D01*
X184436247Y-87235714D02*
X184674342Y-87235714D01*
X184674342Y-87235714D02*
X184769580Y-87188095D01*
X184769580Y-87188095D02*
X184817200Y-87140476D01*
X184817200Y-87140476D02*
X184864819Y-87045238D01*
X184864819Y-87045238D02*
X184864819Y-86807143D01*
X184864819Y-86807143D02*
X184817200Y-86711905D01*
X184817200Y-86711905D02*
X184769580Y-86664286D01*
X174196666Y-74214819D02*
X174529999Y-73738628D01*
X174768094Y-74214819D02*
X174768094Y-73214819D01*
X174768094Y-73214819D02*
X174387142Y-73214819D01*
X174387142Y-73214819D02*
X174291904Y-73262438D01*
X174291904Y-73262438D02*
X174244285Y-73310057D01*
X174244285Y-73310057D02*
X174196666Y-73405295D01*
X174196666Y-73405295D02*
X174196666Y-73548152D01*
X174196666Y-73548152D02*
X174244285Y-73643390D01*
X174244285Y-73643390D02*
X174291904Y-73691009D01*
X174291904Y-73691009D02*
X174387142Y-73738628D01*
X174387142Y-73738628D02*
X174768094Y-73738628D01*
X173244285Y-74214819D02*
X173815713Y-74214819D01*
X173529999Y-74214819D02*
X173529999Y-73214819D01*
X173529999Y-73214819D02*
X173625237Y-73357676D01*
X173625237Y-73357676D02*
X173720475Y-73452914D01*
X173720475Y-73452914D02*
X173815713Y-73500533D01*
X186404819Y-86263333D02*
X185928628Y-85930000D01*
X186404819Y-85691905D02*
X185404819Y-85691905D01*
X185404819Y-85691905D02*
X185404819Y-86072857D01*
X185404819Y-86072857D02*
X185452438Y-86168095D01*
X185452438Y-86168095D02*
X185500057Y-86215714D01*
X185500057Y-86215714D02*
X185595295Y-86263333D01*
X185595295Y-86263333D02*
X185738152Y-86263333D01*
X185738152Y-86263333D02*
X185833390Y-86215714D01*
X185833390Y-86215714D02*
X185881009Y-86168095D01*
X185881009Y-86168095D02*
X185928628Y-86072857D01*
X185928628Y-86072857D02*
X185928628Y-85691905D01*
X185404819Y-87120476D02*
X185404819Y-86930000D01*
X185404819Y-86930000D02*
X185452438Y-86834762D01*
X185452438Y-86834762D02*
X185500057Y-86787143D01*
X185500057Y-86787143D02*
X185642914Y-86691905D01*
X185642914Y-86691905D02*
X185833390Y-86644286D01*
X185833390Y-86644286D02*
X186214342Y-86644286D01*
X186214342Y-86644286D02*
X186309580Y-86691905D01*
X186309580Y-86691905D02*
X186357200Y-86739524D01*
X186357200Y-86739524D02*
X186404819Y-86834762D01*
X186404819Y-86834762D02*
X186404819Y-87025238D01*
X186404819Y-87025238D02*
X186357200Y-87120476D01*
X186357200Y-87120476D02*
X186309580Y-87168095D01*
X186309580Y-87168095D02*
X186214342Y-87215714D01*
X186214342Y-87215714D02*
X185976247Y-87215714D01*
X185976247Y-87215714D02*
X185881009Y-87168095D01*
X185881009Y-87168095D02*
X185833390Y-87120476D01*
X185833390Y-87120476D02*
X185785771Y-87025238D01*
X185785771Y-87025238D02*
X185785771Y-86834762D01*
X185785771Y-86834762D02*
X185833390Y-86739524D01*
X185833390Y-86739524D02*
X185881009Y-86691905D01*
X185881009Y-86691905D02*
X185976247Y-86644286D01*
X174006666Y-80064819D02*
X174339999Y-79588628D01*
X174578094Y-80064819D02*
X174578094Y-79064819D01*
X174578094Y-79064819D02*
X174197142Y-79064819D01*
X174197142Y-79064819D02*
X174101904Y-79112438D01*
X174101904Y-79112438D02*
X174054285Y-79160057D01*
X174054285Y-79160057D02*
X174006666Y-79255295D01*
X174006666Y-79255295D02*
X174006666Y-79398152D01*
X174006666Y-79398152D02*
X174054285Y-79493390D01*
X174054285Y-79493390D02*
X174101904Y-79541009D01*
X174101904Y-79541009D02*
X174197142Y-79588628D01*
X174197142Y-79588628D02*
X174578094Y-79588628D01*
X173625713Y-79160057D02*
X173578094Y-79112438D01*
X173578094Y-79112438D02*
X173482856Y-79064819D01*
X173482856Y-79064819D02*
X173244761Y-79064819D01*
X173244761Y-79064819D02*
X173149523Y-79112438D01*
X173149523Y-79112438D02*
X173101904Y-79160057D01*
X173101904Y-79160057D02*
X173054285Y-79255295D01*
X173054285Y-79255295D02*
X173054285Y-79350533D01*
X173054285Y-79350533D02*
X173101904Y-79493390D01*
X173101904Y-79493390D02*
X173673332Y-80064819D01*
X173673332Y-80064819D02*
X173054285Y-80064819D01*
X181294819Y-79063333D02*
X180818628Y-78730000D01*
X181294819Y-78491905D02*
X180294819Y-78491905D01*
X180294819Y-78491905D02*
X180294819Y-78872857D01*
X180294819Y-78872857D02*
X180342438Y-78968095D01*
X180342438Y-78968095D02*
X180390057Y-79015714D01*
X180390057Y-79015714D02*
X180485295Y-79063333D01*
X180485295Y-79063333D02*
X180628152Y-79063333D01*
X180628152Y-79063333D02*
X180723390Y-79015714D01*
X180723390Y-79015714D02*
X180771009Y-78968095D01*
X180771009Y-78968095D02*
X180818628Y-78872857D01*
X180818628Y-78872857D02*
X180818628Y-78491905D01*
X181294819Y-79539524D02*
X181294819Y-79730000D01*
X181294819Y-79730000D02*
X181247200Y-79825238D01*
X181247200Y-79825238D02*
X181199580Y-79872857D01*
X181199580Y-79872857D02*
X181056723Y-79968095D01*
X181056723Y-79968095D02*
X180866247Y-80015714D01*
X180866247Y-80015714D02*
X180485295Y-80015714D01*
X180485295Y-80015714D02*
X180390057Y-79968095D01*
X180390057Y-79968095D02*
X180342438Y-79920476D01*
X180342438Y-79920476D02*
X180294819Y-79825238D01*
X180294819Y-79825238D02*
X180294819Y-79634762D01*
X180294819Y-79634762D02*
X180342438Y-79539524D01*
X180342438Y-79539524D02*
X180390057Y-79491905D01*
X180390057Y-79491905D02*
X180485295Y-79444286D01*
X180485295Y-79444286D02*
X180723390Y-79444286D01*
X180723390Y-79444286D02*
X180818628Y-79491905D01*
X180818628Y-79491905D02*
X180866247Y-79539524D01*
X180866247Y-79539524D02*
X180913866Y-79634762D01*
X180913866Y-79634762D02*
X180913866Y-79825238D01*
X180913866Y-79825238D02*
X180866247Y-79920476D01*
X180866247Y-79920476D02*
X180818628Y-79968095D01*
X180818628Y-79968095D02*
X180723390Y-80015714D01*
X192788095Y-87505180D02*
X192788095Y-86695657D01*
X192788095Y-86695657D02*
X192835714Y-86600419D01*
X192835714Y-86600419D02*
X192883333Y-86552800D01*
X192883333Y-86552800D02*
X192978571Y-86505180D01*
X192978571Y-86505180D02*
X193169047Y-86505180D01*
X193169047Y-86505180D02*
X193264285Y-86552800D01*
X193264285Y-86552800D02*
X193311904Y-86600419D01*
X193311904Y-86600419D02*
X193359523Y-86695657D01*
X193359523Y-86695657D02*
X193359523Y-87505180D01*
X193740476Y-87505180D02*
X194359523Y-87505180D01*
X194359523Y-87505180D02*
X194026190Y-87124228D01*
X194026190Y-87124228D02*
X194169047Y-87124228D01*
X194169047Y-87124228D02*
X194264285Y-87076609D01*
X194264285Y-87076609D02*
X194311904Y-87028990D01*
X194311904Y-87028990D02*
X194359523Y-86933752D01*
X194359523Y-86933752D02*
X194359523Y-86695657D01*
X194359523Y-86695657D02*
X194311904Y-86600419D01*
X194311904Y-86600419D02*
X194264285Y-86552800D01*
X194264285Y-86552800D02*
X194169047Y-86505180D01*
X194169047Y-86505180D02*
X193883333Y-86505180D01*
X193883333Y-86505180D02*
X193788095Y-86552800D01*
X193788095Y-86552800D02*
X193740476Y-86600419D01*
X190334819Y-86490000D02*
X190572914Y-86490000D01*
X190477676Y-86251905D02*
X190572914Y-86490000D01*
X190572914Y-86490000D02*
X190477676Y-86728095D01*
X190763390Y-86347143D02*
X190572914Y-86490000D01*
X190572914Y-86490000D02*
X190763390Y-86632857D01*
X178194819Y-79143333D02*
X177718628Y-78810000D01*
X178194819Y-78571905D02*
X177194819Y-78571905D01*
X177194819Y-78571905D02*
X177194819Y-78952857D01*
X177194819Y-78952857D02*
X177242438Y-79048095D01*
X177242438Y-79048095D02*
X177290057Y-79095714D01*
X177290057Y-79095714D02*
X177385295Y-79143333D01*
X177385295Y-79143333D02*
X177528152Y-79143333D01*
X177528152Y-79143333D02*
X177623390Y-79095714D01*
X177623390Y-79095714D02*
X177671009Y-79048095D01*
X177671009Y-79048095D02*
X177718628Y-78952857D01*
X177718628Y-78952857D02*
X177718628Y-78571905D01*
X177194819Y-79476667D02*
X177194819Y-80143333D01*
X177194819Y-80143333D02*
X178194819Y-79714762D01*
D11*
X198468633Y-86869999D02*
X198135300Y-86636666D01*
X198468633Y-86469999D02*
X197768633Y-86469999D01*
X197768633Y-86469999D02*
X197768633Y-86736666D01*
X197768633Y-86736666D02*
X197801966Y-86803333D01*
X197801966Y-86803333D02*
X197835300Y-86836666D01*
X197835300Y-86836666D02*
X197901966Y-86869999D01*
X197901966Y-86869999D02*
X198001966Y-86869999D01*
X198001966Y-86869999D02*
X198068633Y-86836666D01*
X198068633Y-86836666D02*
X198101966Y-86803333D01*
X198101966Y-86803333D02*
X198135300Y-86736666D01*
X198135300Y-86736666D02*
X198135300Y-86469999D01*
X198468633Y-87536666D02*
X198468633Y-87136666D01*
X198468633Y-87336666D02*
X197768633Y-87336666D01*
X197768633Y-87336666D02*
X197868633Y-87269999D01*
X197868633Y-87269999D02*
X197935300Y-87203333D01*
X197935300Y-87203333D02*
X197968633Y-87136666D01*
X197768633Y-88136666D02*
X197768633Y-88003333D01*
X197768633Y-88003333D02*
X197801966Y-87936666D01*
X197801966Y-87936666D02*
X197835300Y-87903333D01*
X197835300Y-87903333D02*
X197935300Y-87836666D01*
X197935300Y-87836666D02*
X198068633Y-87803333D01*
X198068633Y-87803333D02*
X198335300Y-87803333D01*
X198335300Y-87803333D02*
X198401966Y-87836666D01*
X198401966Y-87836666D02*
X198435300Y-87870000D01*
X198435300Y-87870000D02*
X198468633Y-87936666D01*
X198468633Y-87936666D02*
X198468633Y-88070000D01*
X198468633Y-88070000D02*
X198435300Y-88136666D01*
X198435300Y-88136666D02*
X198401966Y-88170000D01*
X198401966Y-88170000D02*
X198335300Y-88203333D01*
X198335300Y-88203333D02*
X198168633Y-88203333D01*
X198168633Y-88203333D02*
X198101966Y-88170000D01*
X198101966Y-88170000D02*
X198068633Y-88136666D01*
X198068633Y-88136666D02*
X198035300Y-88070000D01*
X198035300Y-88070000D02*
X198035300Y-87936666D01*
X198035300Y-87936666D02*
X198068633Y-87870000D01*
X198068633Y-87870000D02*
X198101966Y-87836666D01*
X198101966Y-87836666D02*
X198168633Y-87803333D01*
D10*
X199604819Y-68637142D02*
X199128628Y-68303809D01*
X199604819Y-68065714D02*
X198604819Y-68065714D01*
X198604819Y-68065714D02*
X198604819Y-68446666D01*
X198604819Y-68446666D02*
X198652438Y-68541904D01*
X198652438Y-68541904D02*
X198700057Y-68589523D01*
X198700057Y-68589523D02*
X198795295Y-68637142D01*
X198795295Y-68637142D02*
X198938152Y-68637142D01*
X198938152Y-68637142D02*
X199033390Y-68589523D01*
X199033390Y-68589523D02*
X199081009Y-68541904D01*
X199081009Y-68541904D02*
X199128628Y-68446666D01*
X199128628Y-68446666D02*
X199128628Y-68065714D01*
X198700057Y-69018095D02*
X198652438Y-69065714D01*
X198652438Y-69065714D02*
X198604819Y-69160952D01*
X198604819Y-69160952D02*
X198604819Y-69399047D01*
X198604819Y-69399047D02*
X198652438Y-69494285D01*
X198652438Y-69494285D02*
X198700057Y-69541904D01*
X198700057Y-69541904D02*
X198795295Y-69589523D01*
X198795295Y-69589523D02*
X198890533Y-69589523D01*
X198890533Y-69589523D02*
X199033390Y-69541904D01*
X199033390Y-69541904D02*
X199604819Y-68970476D01*
X199604819Y-68970476D02*
X199604819Y-69589523D01*
X198604819Y-69922857D02*
X198604819Y-70541904D01*
X198604819Y-70541904D02*
X198985771Y-70208571D01*
X198985771Y-70208571D02*
X198985771Y-70351428D01*
X198985771Y-70351428D02*
X199033390Y-70446666D01*
X199033390Y-70446666D02*
X199081009Y-70494285D01*
X199081009Y-70494285D02*
X199176247Y-70541904D01*
X199176247Y-70541904D02*
X199414342Y-70541904D01*
X199414342Y-70541904D02*
X199509580Y-70494285D01*
X199509580Y-70494285D02*
X199557200Y-70446666D01*
X199557200Y-70446666D02*
X199604819Y-70351428D01*
X199604819Y-70351428D02*
X199604819Y-70065714D01*
X199604819Y-70065714D02*
X199557200Y-69970476D01*
X199557200Y-69970476D02*
X199509580Y-69922857D01*
X183844819Y-68677142D02*
X183368628Y-68343809D01*
X183844819Y-68105714D02*
X182844819Y-68105714D01*
X182844819Y-68105714D02*
X182844819Y-68486666D01*
X182844819Y-68486666D02*
X182892438Y-68581904D01*
X182892438Y-68581904D02*
X182940057Y-68629523D01*
X182940057Y-68629523D02*
X183035295Y-68677142D01*
X183035295Y-68677142D02*
X183178152Y-68677142D01*
X183178152Y-68677142D02*
X183273390Y-68629523D01*
X183273390Y-68629523D02*
X183321009Y-68581904D01*
X183321009Y-68581904D02*
X183368628Y-68486666D01*
X183368628Y-68486666D02*
X183368628Y-68105714D01*
X182940057Y-69058095D02*
X182892438Y-69105714D01*
X182892438Y-69105714D02*
X182844819Y-69200952D01*
X182844819Y-69200952D02*
X182844819Y-69439047D01*
X182844819Y-69439047D02*
X182892438Y-69534285D01*
X182892438Y-69534285D02*
X182940057Y-69581904D01*
X182940057Y-69581904D02*
X183035295Y-69629523D01*
X183035295Y-69629523D02*
X183130533Y-69629523D01*
X183130533Y-69629523D02*
X183273390Y-69581904D01*
X183273390Y-69581904D02*
X183844819Y-69010476D01*
X183844819Y-69010476D02*
X183844819Y-69629523D01*
X182940057Y-70010476D02*
X182892438Y-70058095D01*
X182892438Y-70058095D02*
X182844819Y-70153333D01*
X182844819Y-70153333D02*
X182844819Y-70391428D01*
X182844819Y-70391428D02*
X182892438Y-70486666D01*
X182892438Y-70486666D02*
X182940057Y-70534285D01*
X182940057Y-70534285D02*
X183035295Y-70581904D01*
X183035295Y-70581904D02*
X183130533Y-70581904D01*
X183130533Y-70581904D02*
X183273390Y-70534285D01*
X183273390Y-70534285D02*
X183844819Y-69962857D01*
X183844819Y-69962857D02*
X183844819Y-70581904D01*
X203554819Y-75117142D02*
X203078628Y-74783809D01*
X203554819Y-74545714D02*
X202554819Y-74545714D01*
X202554819Y-74545714D02*
X202554819Y-74926666D01*
X202554819Y-74926666D02*
X202602438Y-75021904D01*
X202602438Y-75021904D02*
X202650057Y-75069523D01*
X202650057Y-75069523D02*
X202745295Y-75117142D01*
X202745295Y-75117142D02*
X202888152Y-75117142D01*
X202888152Y-75117142D02*
X202983390Y-75069523D01*
X202983390Y-75069523D02*
X203031009Y-75021904D01*
X203031009Y-75021904D02*
X203078628Y-74926666D01*
X203078628Y-74926666D02*
X203078628Y-74545714D01*
X203554819Y-76069523D02*
X203554819Y-75498095D01*
X203554819Y-75783809D02*
X202554819Y-75783809D01*
X202554819Y-75783809D02*
X202697676Y-75688571D01*
X202697676Y-75688571D02*
X202792914Y-75593333D01*
X202792914Y-75593333D02*
X202840533Y-75498095D01*
X202554819Y-76402857D02*
X202554819Y-77021904D01*
X202554819Y-77021904D02*
X202935771Y-76688571D01*
X202935771Y-76688571D02*
X202935771Y-76831428D01*
X202935771Y-76831428D02*
X202983390Y-76926666D01*
X202983390Y-76926666D02*
X203031009Y-76974285D01*
X203031009Y-76974285D02*
X203126247Y-77021904D01*
X203126247Y-77021904D02*
X203364342Y-77021904D01*
X203364342Y-77021904D02*
X203459580Y-76974285D01*
X203459580Y-76974285D02*
X203507200Y-76926666D01*
X203507200Y-76926666D02*
X203554819Y-76831428D01*
X203554819Y-76831428D02*
X203554819Y-76545714D01*
X203554819Y-76545714D02*
X203507200Y-76450476D01*
X203507200Y-76450476D02*
X203459580Y-76402857D01*
D11*
X200038633Y-86849999D02*
X199705300Y-86616666D01*
X200038633Y-86449999D02*
X199338633Y-86449999D01*
X199338633Y-86449999D02*
X199338633Y-86716666D01*
X199338633Y-86716666D02*
X199371966Y-86783333D01*
X199371966Y-86783333D02*
X199405300Y-86816666D01*
X199405300Y-86816666D02*
X199471966Y-86849999D01*
X199471966Y-86849999D02*
X199571966Y-86849999D01*
X199571966Y-86849999D02*
X199638633Y-86816666D01*
X199638633Y-86816666D02*
X199671966Y-86783333D01*
X199671966Y-86783333D02*
X199705300Y-86716666D01*
X199705300Y-86716666D02*
X199705300Y-86449999D01*
X200038633Y-87516666D02*
X200038633Y-87116666D01*
X200038633Y-87316666D02*
X199338633Y-87316666D01*
X199338633Y-87316666D02*
X199438633Y-87249999D01*
X199438633Y-87249999D02*
X199505300Y-87183333D01*
X199505300Y-87183333D02*
X199538633Y-87116666D01*
X199338633Y-88150000D02*
X199338633Y-87816666D01*
X199338633Y-87816666D02*
X199671966Y-87783333D01*
X199671966Y-87783333D02*
X199638633Y-87816666D01*
X199638633Y-87816666D02*
X199605300Y-87883333D01*
X199605300Y-87883333D02*
X199605300Y-88050000D01*
X199605300Y-88050000D02*
X199638633Y-88116666D01*
X199638633Y-88116666D02*
X199671966Y-88150000D01*
X199671966Y-88150000D02*
X199738633Y-88183333D01*
X199738633Y-88183333D02*
X199905300Y-88183333D01*
X199905300Y-88183333D02*
X199971966Y-88150000D01*
X199971966Y-88150000D02*
X200005300Y-88116666D01*
X200005300Y-88116666D02*
X200038633Y-88050000D01*
X200038633Y-88050000D02*
X200038633Y-87883333D01*
X200038633Y-87883333D02*
X200005300Y-87816666D01*
X200005300Y-87816666D02*
X199971966Y-87783333D01*
D10*
X190218095Y-67585180D02*
X190218095Y-66775657D01*
X190218095Y-66775657D02*
X190265714Y-66680419D01*
X190265714Y-66680419D02*
X190313333Y-66632800D01*
X190313333Y-66632800D02*
X190408571Y-66585180D01*
X190408571Y-66585180D02*
X190599047Y-66585180D01*
X190599047Y-66585180D02*
X190694285Y-66632800D01*
X190694285Y-66632800D02*
X190741904Y-66680419D01*
X190741904Y-66680419D02*
X190789523Y-66775657D01*
X190789523Y-66775657D02*
X190789523Y-67585180D01*
X191694285Y-67251847D02*
X191694285Y-66585180D01*
X191456190Y-67632800D02*
X191218095Y-66918514D01*
X191218095Y-66918514D02*
X191837142Y-66918514D01*
X188179999Y-73554819D02*
X188179999Y-73792914D01*
X188418094Y-73697676D02*
X188179999Y-73792914D01*
X188179999Y-73792914D02*
X187941904Y-73697676D01*
X188322856Y-73983390D02*
X188179999Y-73792914D01*
X188179999Y-73792914D02*
X188037142Y-73983390D01*
X182144819Y-68707142D02*
X181668628Y-68373809D01*
X182144819Y-68135714D02*
X181144819Y-68135714D01*
X181144819Y-68135714D02*
X181144819Y-68516666D01*
X181144819Y-68516666D02*
X181192438Y-68611904D01*
X181192438Y-68611904D02*
X181240057Y-68659523D01*
X181240057Y-68659523D02*
X181335295Y-68707142D01*
X181335295Y-68707142D02*
X181478152Y-68707142D01*
X181478152Y-68707142D02*
X181573390Y-68659523D01*
X181573390Y-68659523D02*
X181621009Y-68611904D01*
X181621009Y-68611904D02*
X181668628Y-68516666D01*
X181668628Y-68516666D02*
X181668628Y-68135714D01*
X181240057Y-69088095D02*
X181192438Y-69135714D01*
X181192438Y-69135714D02*
X181144819Y-69230952D01*
X181144819Y-69230952D02*
X181144819Y-69469047D01*
X181144819Y-69469047D02*
X181192438Y-69564285D01*
X181192438Y-69564285D02*
X181240057Y-69611904D01*
X181240057Y-69611904D02*
X181335295Y-69659523D01*
X181335295Y-69659523D02*
X181430533Y-69659523D01*
X181430533Y-69659523D02*
X181573390Y-69611904D01*
X181573390Y-69611904D02*
X182144819Y-69040476D01*
X182144819Y-69040476D02*
X182144819Y-69659523D01*
X182144819Y-70611904D02*
X182144819Y-70040476D01*
X182144819Y-70326190D02*
X181144819Y-70326190D01*
X181144819Y-70326190D02*
X181287676Y-70230952D01*
X181287676Y-70230952D02*
X181382914Y-70135714D01*
X181382914Y-70135714D02*
X181430533Y-70040476D01*
X201684819Y-75077142D02*
X201208628Y-74743809D01*
X201684819Y-74505714D02*
X200684819Y-74505714D01*
X200684819Y-74505714D02*
X200684819Y-74886666D01*
X200684819Y-74886666D02*
X200732438Y-74981904D01*
X200732438Y-74981904D02*
X200780057Y-75029523D01*
X200780057Y-75029523D02*
X200875295Y-75077142D01*
X200875295Y-75077142D02*
X201018152Y-75077142D01*
X201018152Y-75077142D02*
X201113390Y-75029523D01*
X201113390Y-75029523D02*
X201161009Y-74981904D01*
X201161009Y-74981904D02*
X201208628Y-74886666D01*
X201208628Y-74886666D02*
X201208628Y-74505714D01*
X201684819Y-76029523D02*
X201684819Y-75458095D01*
X201684819Y-75743809D02*
X200684819Y-75743809D01*
X200684819Y-75743809D02*
X200827676Y-75648571D01*
X200827676Y-75648571D02*
X200922914Y-75553333D01*
X200922914Y-75553333D02*
X200970533Y-75458095D01*
X201018152Y-76886666D02*
X201684819Y-76886666D01*
X200637200Y-76648571D02*
X201351485Y-76410476D01*
X201351485Y-76410476D02*
X201351485Y-77029523D01*
X189544819Y-86963333D02*
X189068628Y-86630000D01*
X189544819Y-86391905D02*
X188544819Y-86391905D01*
X188544819Y-86391905D02*
X188544819Y-86772857D01*
X188544819Y-86772857D02*
X188592438Y-86868095D01*
X188592438Y-86868095D02*
X188640057Y-86915714D01*
X188640057Y-86915714D02*
X188735295Y-86963333D01*
X188735295Y-86963333D02*
X188878152Y-86963333D01*
X188878152Y-86963333D02*
X188973390Y-86915714D01*
X188973390Y-86915714D02*
X189021009Y-86868095D01*
X189021009Y-86868095D02*
X189068628Y-86772857D01*
X189068628Y-86772857D02*
X189068628Y-86391905D01*
X188878152Y-87820476D02*
X189544819Y-87820476D01*
X188497200Y-87582381D02*
X189211485Y-87344286D01*
X189211485Y-87344286D02*
X189211485Y-87963333D01*
X203474819Y-86087142D02*
X202998628Y-85753809D01*
X203474819Y-85515714D02*
X202474819Y-85515714D01*
X202474819Y-85515714D02*
X202474819Y-85896666D01*
X202474819Y-85896666D02*
X202522438Y-85991904D01*
X202522438Y-85991904D02*
X202570057Y-86039523D01*
X202570057Y-86039523D02*
X202665295Y-86087142D01*
X202665295Y-86087142D02*
X202808152Y-86087142D01*
X202808152Y-86087142D02*
X202903390Y-86039523D01*
X202903390Y-86039523D02*
X202951009Y-85991904D01*
X202951009Y-85991904D02*
X202998628Y-85896666D01*
X202998628Y-85896666D02*
X202998628Y-85515714D01*
X203474819Y-87039523D02*
X203474819Y-86468095D01*
X203474819Y-86753809D02*
X202474819Y-86753809D01*
X202474819Y-86753809D02*
X202617676Y-86658571D01*
X202617676Y-86658571D02*
X202712914Y-86563333D01*
X202712914Y-86563333D02*
X202760533Y-86468095D01*
X202474819Y-87372857D02*
X202474819Y-88039523D01*
X202474819Y-88039523D02*
X203474819Y-87610952D01*
X198194819Y-74687142D02*
X197718628Y-74353809D01*
X198194819Y-74115714D02*
X197194819Y-74115714D01*
X197194819Y-74115714D02*
X197194819Y-74496666D01*
X197194819Y-74496666D02*
X197242438Y-74591904D01*
X197242438Y-74591904D02*
X197290057Y-74639523D01*
X197290057Y-74639523D02*
X197385295Y-74687142D01*
X197385295Y-74687142D02*
X197528152Y-74687142D01*
X197528152Y-74687142D02*
X197623390Y-74639523D01*
X197623390Y-74639523D02*
X197671009Y-74591904D01*
X197671009Y-74591904D02*
X197718628Y-74496666D01*
X197718628Y-74496666D02*
X197718628Y-74115714D01*
X198194819Y-75639523D02*
X198194819Y-75068095D01*
X198194819Y-75353809D02*
X197194819Y-75353809D01*
X197194819Y-75353809D02*
X197337676Y-75258571D01*
X197337676Y-75258571D02*
X197432914Y-75163333D01*
X197432914Y-75163333D02*
X197480533Y-75068095D01*
X197290057Y-76020476D02*
X197242438Y-76068095D01*
X197242438Y-76068095D02*
X197194819Y-76163333D01*
X197194819Y-76163333D02*
X197194819Y-76401428D01*
X197194819Y-76401428D02*
X197242438Y-76496666D01*
X197242438Y-76496666D02*
X197290057Y-76544285D01*
X197290057Y-76544285D02*
X197385295Y-76591904D01*
X197385295Y-76591904D02*
X197480533Y-76591904D01*
X197480533Y-76591904D02*
X197623390Y-76544285D01*
X197623390Y-76544285D02*
X198194819Y-75972857D01*
X198194819Y-75972857D02*
X198194819Y-76591904D01*
X185956666Y-81929580D02*
X186004285Y-81977200D01*
X186004285Y-81977200D02*
X186147142Y-82024819D01*
X186147142Y-82024819D02*
X186242380Y-82024819D01*
X186242380Y-82024819D02*
X186385237Y-81977200D01*
X186385237Y-81977200D02*
X186480475Y-81881961D01*
X186480475Y-81881961D02*
X186528094Y-81786723D01*
X186528094Y-81786723D02*
X186575713Y-81596247D01*
X186575713Y-81596247D02*
X186575713Y-81453390D01*
X186575713Y-81453390D02*
X186528094Y-81262914D01*
X186528094Y-81262914D02*
X186480475Y-81167676D01*
X186480475Y-81167676D02*
X186385237Y-81072438D01*
X186385237Y-81072438D02*
X186242380Y-81024819D01*
X186242380Y-81024819D02*
X186147142Y-81024819D01*
X186147142Y-81024819D02*
X186004285Y-81072438D01*
X186004285Y-81072438D02*
X185956666Y-81120057D01*
X185385237Y-81453390D02*
X185480475Y-81405771D01*
X185480475Y-81405771D02*
X185528094Y-81358152D01*
X185528094Y-81358152D02*
X185575713Y-81262914D01*
X185575713Y-81262914D02*
X185575713Y-81215295D01*
X185575713Y-81215295D02*
X185528094Y-81120057D01*
X185528094Y-81120057D02*
X185480475Y-81072438D01*
X185480475Y-81072438D02*
X185385237Y-81024819D01*
X185385237Y-81024819D02*
X185194761Y-81024819D01*
X185194761Y-81024819D02*
X185099523Y-81072438D01*
X185099523Y-81072438D02*
X185051904Y-81120057D01*
X185051904Y-81120057D02*
X185004285Y-81215295D01*
X185004285Y-81215295D02*
X185004285Y-81262914D01*
X185004285Y-81262914D02*
X185051904Y-81358152D01*
X185051904Y-81358152D02*
X185099523Y-81405771D01*
X185099523Y-81405771D02*
X185194761Y-81453390D01*
X185194761Y-81453390D02*
X185385237Y-81453390D01*
X185385237Y-81453390D02*
X185480475Y-81501009D01*
X185480475Y-81501009D02*
X185528094Y-81548628D01*
X185528094Y-81548628D02*
X185575713Y-81643866D01*
X185575713Y-81643866D02*
X185575713Y-81834342D01*
X185575713Y-81834342D02*
X185528094Y-81929580D01*
X185528094Y-81929580D02*
X185480475Y-81977200D01*
X185480475Y-81977200D02*
X185385237Y-82024819D01*
X185385237Y-82024819D02*
X185194761Y-82024819D01*
X185194761Y-82024819D02*
X185099523Y-81977200D01*
X185099523Y-81977200D02*
X185051904Y-81929580D01*
X185051904Y-81929580D02*
X185004285Y-81834342D01*
X185004285Y-81834342D02*
X185004285Y-81643866D01*
X185004285Y-81643866D02*
X185051904Y-81548628D01*
X185051904Y-81548628D02*
X185099523Y-81501009D01*
X185099523Y-81501009D02*
X185194761Y-81453390D01*
X191306666Y-76219580D02*
X191354285Y-76267200D01*
X191354285Y-76267200D02*
X191497142Y-76314819D01*
X191497142Y-76314819D02*
X191592380Y-76314819D01*
X191592380Y-76314819D02*
X191735237Y-76267200D01*
X191735237Y-76267200D02*
X191830475Y-76171961D01*
X191830475Y-76171961D02*
X191878094Y-76076723D01*
X191878094Y-76076723D02*
X191925713Y-75886247D01*
X191925713Y-75886247D02*
X191925713Y-75743390D01*
X191925713Y-75743390D02*
X191878094Y-75552914D01*
X191878094Y-75552914D02*
X191830475Y-75457676D01*
X191830475Y-75457676D02*
X191735237Y-75362438D01*
X191735237Y-75362438D02*
X191592380Y-75314819D01*
X191592380Y-75314819D02*
X191497142Y-75314819D01*
X191497142Y-75314819D02*
X191354285Y-75362438D01*
X191354285Y-75362438D02*
X191306666Y-75410057D01*
X190830475Y-76314819D02*
X190639999Y-76314819D01*
X190639999Y-76314819D02*
X190544761Y-76267200D01*
X190544761Y-76267200D02*
X190497142Y-76219580D01*
X190497142Y-76219580D02*
X190401904Y-76076723D01*
X190401904Y-76076723D02*
X190354285Y-75886247D01*
X190354285Y-75886247D02*
X190354285Y-75505295D01*
X190354285Y-75505295D02*
X190401904Y-75410057D01*
X190401904Y-75410057D02*
X190449523Y-75362438D01*
X190449523Y-75362438D02*
X190544761Y-75314819D01*
X190544761Y-75314819D02*
X190735237Y-75314819D01*
X190735237Y-75314819D02*
X190830475Y-75362438D01*
X190830475Y-75362438D02*
X190878094Y-75410057D01*
X190878094Y-75410057D02*
X190925713Y-75505295D01*
X190925713Y-75505295D02*
X190925713Y-75743390D01*
X190925713Y-75743390D02*
X190878094Y-75838628D01*
X190878094Y-75838628D02*
X190830475Y-75886247D01*
X190830475Y-75886247D02*
X190735237Y-75933866D01*
X190735237Y-75933866D02*
X190544761Y-75933866D01*
X190544761Y-75933866D02*
X190449523Y-75886247D01*
X190449523Y-75886247D02*
X190401904Y-75838628D01*
X190401904Y-75838628D02*
X190354285Y-75743390D01*
X201324819Y-71737142D02*
X200848628Y-71403809D01*
X201324819Y-71165714D02*
X200324819Y-71165714D01*
X200324819Y-71165714D02*
X200324819Y-71546666D01*
X200324819Y-71546666D02*
X200372438Y-71641904D01*
X200372438Y-71641904D02*
X200420057Y-71689523D01*
X200420057Y-71689523D02*
X200515295Y-71737142D01*
X200515295Y-71737142D02*
X200658152Y-71737142D01*
X200658152Y-71737142D02*
X200753390Y-71689523D01*
X200753390Y-71689523D02*
X200801009Y-71641904D01*
X200801009Y-71641904D02*
X200848628Y-71546666D01*
X200848628Y-71546666D02*
X200848628Y-71165714D01*
X200420057Y-72118095D02*
X200372438Y-72165714D01*
X200372438Y-72165714D02*
X200324819Y-72260952D01*
X200324819Y-72260952D02*
X200324819Y-72499047D01*
X200324819Y-72499047D02*
X200372438Y-72594285D01*
X200372438Y-72594285D02*
X200420057Y-72641904D01*
X200420057Y-72641904D02*
X200515295Y-72689523D01*
X200515295Y-72689523D02*
X200610533Y-72689523D01*
X200610533Y-72689523D02*
X200753390Y-72641904D01*
X200753390Y-72641904D02*
X201324819Y-72070476D01*
X201324819Y-72070476D02*
X201324819Y-72689523D01*
X200324819Y-73546666D02*
X200324819Y-73356190D01*
X200324819Y-73356190D02*
X200372438Y-73260952D01*
X200372438Y-73260952D02*
X200420057Y-73213333D01*
X200420057Y-73213333D02*
X200562914Y-73118095D01*
X200562914Y-73118095D02*
X200753390Y-73070476D01*
X200753390Y-73070476D02*
X201134342Y-73070476D01*
X201134342Y-73070476D02*
X201229580Y-73118095D01*
X201229580Y-73118095D02*
X201277200Y-73165714D01*
X201277200Y-73165714D02*
X201324819Y-73260952D01*
X201324819Y-73260952D02*
X201324819Y-73451428D01*
X201324819Y-73451428D02*
X201277200Y-73546666D01*
X201277200Y-73546666D02*
X201229580Y-73594285D01*
X201229580Y-73594285D02*
X201134342Y-73641904D01*
X201134342Y-73641904D02*
X200896247Y-73641904D01*
X200896247Y-73641904D02*
X200801009Y-73594285D01*
X200801009Y-73594285D02*
X200753390Y-73546666D01*
X200753390Y-73546666D02*
X200705771Y-73451428D01*
X200705771Y-73451428D02*
X200705771Y-73260952D01*
X200705771Y-73260952D02*
X200753390Y-73165714D01*
X200753390Y-73165714D02*
X200801009Y-73118095D01*
X200801009Y-73118095D02*
X200896247Y-73070476D01*
X179644819Y-79127142D02*
X179168628Y-78793809D01*
X179644819Y-78555714D02*
X178644819Y-78555714D01*
X178644819Y-78555714D02*
X178644819Y-78936666D01*
X178644819Y-78936666D02*
X178692438Y-79031904D01*
X178692438Y-79031904D02*
X178740057Y-79079523D01*
X178740057Y-79079523D02*
X178835295Y-79127142D01*
X178835295Y-79127142D02*
X178978152Y-79127142D01*
X178978152Y-79127142D02*
X179073390Y-79079523D01*
X179073390Y-79079523D02*
X179121009Y-79031904D01*
X179121009Y-79031904D02*
X179168628Y-78936666D01*
X179168628Y-78936666D02*
X179168628Y-78555714D01*
X179644819Y-80079523D02*
X179644819Y-79508095D01*
X179644819Y-79793809D02*
X178644819Y-79793809D01*
X178644819Y-79793809D02*
X178787676Y-79698571D01*
X178787676Y-79698571D02*
X178882914Y-79603333D01*
X178882914Y-79603333D02*
X178930533Y-79508095D01*
X178644819Y-80698571D02*
X178644819Y-80793809D01*
X178644819Y-80793809D02*
X178692438Y-80889047D01*
X178692438Y-80889047D02*
X178740057Y-80936666D01*
X178740057Y-80936666D02*
X178835295Y-80984285D01*
X178835295Y-80984285D02*
X179025771Y-81031904D01*
X179025771Y-81031904D02*
X179263866Y-81031904D01*
X179263866Y-81031904D02*
X179454342Y-80984285D01*
X179454342Y-80984285D02*
X179549580Y-80936666D01*
X179549580Y-80936666D02*
X179597200Y-80889047D01*
X179597200Y-80889047D02*
X179644819Y-80793809D01*
X179644819Y-80793809D02*
X179644819Y-80698571D01*
X179644819Y-80698571D02*
X179597200Y-80603333D01*
X179597200Y-80603333D02*
X179549580Y-80555714D01*
X179549580Y-80555714D02*
X179454342Y-80508095D01*
X179454342Y-80508095D02*
X179263866Y-80460476D01*
X179263866Y-80460476D02*
X179025771Y-80460476D01*
X179025771Y-80460476D02*
X178835295Y-80508095D01*
X178835295Y-80508095D02*
X178740057Y-80555714D01*
X178740057Y-80555714D02*
X178692438Y-80603333D01*
X178692438Y-80603333D02*
X178644819Y-80698571D01*
X182154819Y-71827142D02*
X181678628Y-71493809D01*
X182154819Y-71255714D02*
X181154819Y-71255714D01*
X181154819Y-71255714D02*
X181154819Y-71636666D01*
X181154819Y-71636666D02*
X181202438Y-71731904D01*
X181202438Y-71731904D02*
X181250057Y-71779523D01*
X181250057Y-71779523D02*
X181345295Y-71827142D01*
X181345295Y-71827142D02*
X181488152Y-71827142D01*
X181488152Y-71827142D02*
X181583390Y-71779523D01*
X181583390Y-71779523D02*
X181631009Y-71731904D01*
X181631009Y-71731904D02*
X181678628Y-71636666D01*
X181678628Y-71636666D02*
X181678628Y-71255714D01*
X182154819Y-72779523D02*
X182154819Y-72208095D01*
X182154819Y-72493809D02*
X181154819Y-72493809D01*
X181154819Y-72493809D02*
X181297676Y-72398571D01*
X181297676Y-72398571D02*
X181392914Y-72303333D01*
X181392914Y-72303333D02*
X181440533Y-72208095D01*
X182154819Y-73255714D02*
X182154819Y-73446190D01*
X182154819Y-73446190D02*
X182107200Y-73541428D01*
X182107200Y-73541428D02*
X182059580Y-73589047D01*
X182059580Y-73589047D02*
X181916723Y-73684285D01*
X181916723Y-73684285D02*
X181726247Y-73731904D01*
X181726247Y-73731904D02*
X181345295Y-73731904D01*
X181345295Y-73731904D02*
X181250057Y-73684285D01*
X181250057Y-73684285D02*
X181202438Y-73636666D01*
X181202438Y-73636666D02*
X181154819Y-73541428D01*
X181154819Y-73541428D02*
X181154819Y-73350952D01*
X181154819Y-73350952D02*
X181202438Y-73255714D01*
X181202438Y-73255714D02*
X181250057Y-73208095D01*
X181250057Y-73208095D02*
X181345295Y-73160476D01*
X181345295Y-73160476D02*
X181583390Y-73160476D01*
X181583390Y-73160476D02*
X181678628Y-73208095D01*
X181678628Y-73208095D02*
X181726247Y-73255714D01*
X181726247Y-73255714D02*
X181773866Y-73350952D01*
X181773866Y-73350952D02*
X181773866Y-73541428D01*
X181773866Y-73541428D02*
X181726247Y-73636666D01*
X181726247Y-73636666D02*
X181678628Y-73684285D01*
X181678628Y-73684285D02*
X181583390Y-73731904D01*
X183844819Y-71747142D02*
X183368628Y-71413809D01*
X183844819Y-71175714D02*
X182844819Y-71175714D01*
X182844819Y-71175714D02*
X182844819Y-71556666D01*
X182844819Y-71556666D02*
X182892438Y-71651904D01*
X182892438Y-71651904D02*
X182940057Y-71699523D01*
X182940057Y-71699523D02*
X183035295Y-71747142D01*
X183035295Y-71747142D02*
X183178152Y-71747142D01*
X183178152Y-71747142D02*
X183273390Y-71699523D01*
X183273390Y-71699523D02*
X183321009Y-71651904D01*
X183321009Y-71651904D02*
X183368628Y-71556666D01*
X183368628Y-71556666D02*
X183368628Y-71175714D01*
X182940057Y-72128095D02*
X182892438Y-72175714D01*
X182892438Y-72175714D02*
X182844819Y-72270952D01*
X182844819Y-72270952D02*
X182844819Y-72509047D01*
X182844819Y-72509047D02*
X182892438Y-72604285D01*
X182892438Y-72604285D02*
X182940057Y-72651904D01*
X182940057Y-72651904D02*
X183035295Y-72699523D01*
X183035295Y-72699523D02*
X183130533Y-72699523D01*
X183130533Y-72699523D02*
X183273390Y-72651904D01*
X183273390Y-72651904D02*
X183844819Y-72080476D01*
X183844819Y-72080476D02*
X183844819Y-72699523D01*
X182844819Y-73318571D02*
X182844819Y-73413809D01*
X182844819Y-73413809D02*
X182892438Y-73509047D01*
X182892438Y-73509047D02*
X182940057Y-73556666D01*
X182940057Y-73556666D02*
X183035295Y-73604285D01*
X183035295Y-73604285D02*
X183225771Y-73651904D01*
X183225771Y-73651904D02*
X183463866Y-73651904D01*
X183463866Y-73651904D02*
X183654342Y-73604285D01*
X183654342Y-73604285D02*
X183749580Y-73556666D01*
X183749580Y-73556666D02*
X183797200Y-73509047D01*
X183797200Y-73509047D02*
X183844819Y-73413809D01*
X183844819Y-73413809D02*
X183844819Y-73318571D01*
X183844819Y-73318571D02*
X183797200Y-73223333D01*
X183797200Y-73223333D02*
X183749580Y-73175714D01*
X183749580Y-73175714D02*
X183654342Y-73128095D01*
X183654342Y-73128095D02*
X183463866Y-73080476D01*
X183463866Y-73080476D02*
X183225771Y-73080476D01*
X183225771Y-73080476D02*
X183035295Y-73128095D01*
X183035295Y-73128095D02*
X182940057Y-73175714D01*
X182940057Y-73175714D02*
X182892438Y-73223333D01*
X182892438Y-73223333D02*
X182844819Y-73318571D01*
X187984819Y-86953333D02*
X187508628Y-86620000D01*
X187984819Y-86381905D02*
X186984819Y-86381905D01*
X186984819Y-86381905D02*
X186984819Y-86762857D01*
X186984819Y-86762857D02*
X187032438Y-86858095D01*
X187032438Y-86858095D02*
X187080057Y-86905714D01*
X187080057Y-86905714D02*
X187175295Y-86953333D01*
X187175295Y-86953333D02*
X187318152Y-86953333D01*
X187318152Y-86953333D02*
X187413390Y-86905714D01*
X187413390Y-86905714D02*
X187461009Y-86858095D01*
X187461009Y-86858095D02*
X187508628Y-86762857D01*
X187508628Y-86762857D02*
X187508628Y-86381905D01*
X186984819Y-87286667D02*
X186984819Y-87905714D01*
X186984819Y-87905714D02*
X187365771Y-87572381D01*
X187365771Y-87572381D02*
X187365771Y-87715238D01*
X187365771Y-87715238D02*
X187413390Y-87810476D01*
X187413390Y-87810476D02*
X187461009Y-87858095D01*
X187461009Y-87858095D02*
X187556247Y-87905714D01*
X187556247Y-87905714D02*
X187794342Y-87905714D01*
X187794342Y-87905714D02*
X187889580Y-87858095D01*
X187889580Y-87858095D02*
X187937200Y-87810476D01*
X187937200Y-87810476D02*
X187984819Y-87715238D01*
X187984819Y-87715238D02*
X187984819Y-87429524D01*
X187984819Y-87429524D02*
X187937200Y-87334286D01*
X187937200Y-87334286D02*
X187889580Y-87286667D01*
D12*
%TO.C,J4*%
X214210900Y-85692600D02*
G75*
G03*
X214210900Y-85692600I-381000J0D01*
G01*
%TO.C,J3*%
X220052900Y-85692600D02*
G75*
G03*
X220052900Y-85692600I-381000J0D01*
G01*
D13*
%TO.C,R8*%
X188453500Y-78723258D02*
X188453500Y-78248742D01*
X189498500Y-78723258D02*
X189498500Y-78248742D01*
%TO.C,R24*%
X196229500Y-72152742D02*
X196229500Y-72627258D01*
X195184500Y-72152742D02*
X195184500Y-72627258D01*
%TO.C,R25*%
X196708500Y-69104742D02*
X196708500Y-69579258D01*
X197753500Y-69104742D02*
X197753500Y-69579258D01*
%TO.C,R18*%
X200645500Y-83930258D02*
X200645500Y-83455742D01*
X201690500Y-83930258D02*
X201690500Y-83455742D01*
%TO.C,R11*%
X200166500Y-78121742D02*
X200166500Y-78596258D01*
X199121500Y-78121742D02*
X199121500Y-78596258D01*
%TO.C,R5*%
X184926500Y-83709742D02*
X184926500Y-84184258D01*
X183881500Y-83709742D02*
X183881500Y-84184258D01*
%TO.C,R1*%
X174100258Y-75706500D02*
X173625742Y-75706500D01*
X174100258Y-74661500D02*
X173625742Y-74661500D01*
%TO.C,R6*%
X185405500Y-84184258D02*
X185405500Y-83709742D01*
X186450500Y-84184258D02*
X186450500Y-83709742D01*
%TO.C,R2*%
X174100258Y-78627500D02*
X173625742Y-78627500D01*
X174100258Y-77582500D02*
X173625742Y-77582500D01*
%TO.C,R9*%
X187974500Y-79010742D02*
X187974500Y-79485258D01*
X186929500Y-79010742D02*
X186929500Y-79485258D01*
D14*
%TO.C,U3*%
X191414400Y-77025500D02*
X195681600Y-77025500D01*
X195681600Y-86042500D02*
X191414400Y-86042500D01*
G36*
X197504799Y-80454500D02*
G01*
X197250799Y-80454500D01*
X197250799Y-80073500D01*
X197504799Y-80073500D01*
X197504799Y-80454500D01*
G37*
D13*
%TO.C,R7*%
X183881500Y-79485258D02*
X183881500Y-79010742D01*
X184926500Y-79485258D02*
X184926500Y-79010742D01*
%TO.C,R16*%
X198642500Y-84725742D02*
X198642500Y-85200258D01*
X197597500Y-84725742D02*
X197597500Y-85200258D01*
%TO.C,R23*%
X195184500Y-69104742D02*
X195184500Y-69579258D01*
X196229500Y-69104742D02*
X196229500Y-69579258D01*
%TO.C,R22*%
X187085500Y-69104742D02*
X187085500Y-69579258D01*
X186040500Y-69104742D02*
X186040500Y-69579258D01*
%TO.C,R13*%
X203302500Y-78592742D02*
X203302500Y-79067258D01*
X202257500Y-78592742D02*
X202257500Y-79067258D01*
%TO.C,R15*%
X199121500Y-85200258D02*
X199121500Y-84725742D01*
X200166500Y-85200258D02*
X200166500Y-84725742D01*
D14*
%TO.C,U4*%
X189033000Y-68289000D02*
X193237000Y-68289000D01*
X193237000Y-73443000D02*
X189033000Y-73443000D01*
D13*
%TO.C,R21*%
X185561500Y-69104742D02*
X185561500Y-69579258D01*
X184516500Y-69104742D02*
X184516500Y-69579258D01*
%TO.C,R14*%
X201762500Y-78592742D02*
X201762500Y-79067258D01*
X200717500Y-78592742D02*
X200717500Y-79067258D01*
%TO.C,R4*%
X188580500Y-84471742D02*
X188580500Y-84946258D01*
X189625500Y-84471742D02*
X189625500Y-84946258D01*
%TO.C,R17*%
X203214500Y-83930258D02*
X203214500Y-83455742D01*
X202169500Y-83930258D02*
X202169500Y-83455742D01*
%TO.C,R12*%
X197597500Y-78596258D02*
X197597500Y-78121742D01*
X198642500Y-78596258D02*
X198642500Y-78121742D01*
%TO.C,C8*%
X188354580Y-82044000D02*
X188073420Y-82044000D01*
X188354580Y-81024000D02*
X188073420Y-81024000D01*
%TO.C,C9*%
X192050580Y-74920000D02*
X191769420Y-74920000D01*
X192050580Y-73900000D02*
X191769420Y-73900000D01*
%TO.C,R26*%
X196708500Y-72627258D02*
X196708500Y-72152742D01*
X197753500Y-72627258D02*
X197753500Y-72152742D01*
%TO.C,R10*%
X186450500Y-79010742D02*
X186450500Y-79485258D01*
X185405500Y-79010742D02*
X185405500Y-79485258D01*
%TO.C,R19*%
X184516500Y-72627258D02*
X184516500Y-72152742D01*
X185561500Y-72627258D02*
X185561500Y-72152742D01*
%TO.C,R20*%
X187085500Y-72152742D02*
X187085500Y-72627258D01*
X186040500Y-72152742D02*
X186040500Y-72627258D01*
%TO.C,R3*%
X187056500Y-84946258D02*
X187056500Y-84471742D01*
X188101500Y-84946258D02*
X188101500Y-84471742D01*
%TD*%
M02*
