%TF.GenerationSoftware,KiCad,Pcbnew,7.0.6*%
%TF.CreationDate,2023-07-26T14:22:16+03:00*%
%TF.ProjectId,Accelerometru,41636365-6c65-4726-9f6d-657472752e6b,rev?*%
%TF.SameCoordinates,Original*%
%TF.FileFunction,Legend,Top*%
%TF.FilePolarity,Positive*%
%FSLAX46Y46*%
G04 Gerber Fmt 4.6, Leading zero omitted, Abs format (unit mm)*
G04 Created by KiCad (PCBNEW 7.0.6) date 2023-07-26 14:22:16*
%MOMM*%
%LPD*%
G01*
G04 APERTURE LIST*
%ADD10C,0.150000*%
%ADD11C,0.100000*%
%ADD12C,0.200000*%
%ADD13C,0.152400*%
%ADD14C,0.120000*%
%ADD15C,0.508000*%
G04 APERTURE END LIST*
D10*
X204651541Y-75639819D02*
X205318207Y-75639819D01*
X205318207Y-75639819D02*
X204651541Y-76639819D01*
X204651541Y-76639819D02*
X205318207Y-76639819D01*
X194677255Y-76133628D02*
X194677255Y-76609819D01*
X194343922Y-75609819D02*
X194677255Y-76133628D01*
X194677255Y-76133628D02*
X195010588Y-75609819D01*
X184121541Y-75599819D02*
X184788207Y-76599819D01*
X184788207Y-75599819D02*
X184121541Y-76599819D01*
X164769160Y-64744104D02*
X165245350Y-64744104D01*
X164673922Y-65029819D02*
X165007255Y-64029819D01*
X165007255Y-64029819D02*
X165340588Y-65029819D01*
X165673922Y-65029819D02*
X165673922Y-64029819D01*
X165673922Y-64029819D02*
X166245350Y-65029819D01*
X166245350Y-65029819D02*
X166245350Y-64029819D01*
X166673922Y-64744104D02*
X167150112Y-64744104D01*
X166578684Y-65029819D02*
X166912017Y-64029819D01*
X166912017Y-64029819D02*
X167245350Y-65029819D01*
X168054874Y-65029819D02*
X167578684Y-65029819D01*
X167578684Y-65029819D02*
X167578684Y-64029819D01*
X168578684Y-64029819D02*
X168769160Y-64029819D01*
X168769160Y-64029819D02*
X168864398Y-64077438D01*
X168864398Y-64077438D02*
X168959636Y-64172676D01*
X168959636Y-64172676D02*
X169007255Y-64363152D01*
X169007255Y-64363152D02*
X169007255Y-64696485D01*
X169007255Y-64696485D02*
X168959636Y-64886961D01*
X168959636Y-64886961D02*
X168864398Y-64982200D01*
X168864398Y-64982200D02*
X168769160Y-65029819D01*
X168769160Y-65029819D02*
X168578684Y-65029819D01*
X168578684Y-65029819D02*
X168483446Y-64982200D01*
X168483446Y-64982200D02*
X168388208Y-64886961D01*
X168388208Y-64886961D02*
X168340589Y-64696485D01*
X168340589Y-64696485D02*
X168340589Y-64363152D01*
X168340589Y-64363152D02*
X168388208Y-64172676D01*
X168388208Y-64172676D02*
X168483446Y-64077438D01*
X168483446Y-64077438D02*
X168578684Y-64029819D01*
X169959636Y-64077438D02*
X169864398Y-64029819D01*
X169864398Y-64029819D02*
X169721541Y-64029819D01*
X169721541Y-64029819D02*
X169578684Y-64077438D01*
X169578684Y-64077438D02*
X169483446Y-64172676D01*
X169483446Y-64172676D02*
X169435827Y-64267914D01*
X169435827Y-64267914D02*
X169388208Y-64458390D01*
X169388208Y-64458390D02*
X169388208Y-64601247D01*
X169388208Y-64601247D02*
X169435827Y-64791723D01*
X169435827Y-64791723D02*
X169483446Y-64886961D01*
X169483446Y-64886961D02*
X169578684Y-64982200D01*
X169578684Y-64982200D02*
X169721541Y-65029819D01*
X169721541Y-65029819D02*
X169816779Y-65029819D01*
X169816779Y-65029819D02*
X169959636Y-64982200D01*
X169959636Y-64982200D02*
X170007255Y-64934580D01*
X170007255Y-64934580D02*
X170007255Y-64601247D01*
X170007255Y-64601247D02*
X169816779Y-64601247D01*
X164816779Y-66639819D02*
X164816779Y-65639819D01*
X164816779Y-65639819D02*
X165054874Y-65639819D01*
X165054874Y-65639819D02*
X165197731Y-65687438D01*
X165197731Y-65687438D02*
X165292969Y-65782676D01*
X165292969Y-65782676D02*
X165340588Y-65877914D01*
X165340588Y-65877914D02*
X165388207Y-66068390D01*
X165388207Y-66068390D02*
X165388207Y-66211247D01*
X165388207Y-66211247D02*
X165340588Y-66401723D01*
X165340588Y-66401723D02*
X165292969Y-66496961D01*
X165292969Y-66496961D02*
X165197731Y-66592200D01*
X165197731Y-66592200D02*
X165054874Y-66639819D01*
X165054874Y-66639819D02*
X164816779Y-66639819D01*
X165816779Y-66116009D02*
X166150112Y-66116009D01*
X166292969Y-66639819D02*
X165816779Y-66639819D01*
X165816779Y-66639819D02*
X165816779Y-65639819D01*
X165816779Y-65639819D02*
X166292969Y-65639819D01*
X166578684Y-65639819D02*
X166912017Y-66639819D01*
X166912017Y-66639819D02*
X167245350Y-65639819D01*
X167578684Y-66639819D02*
X167578684Y-65639819D01*
X168626302Y-66544580D02*
X168578683Y-66592200D01*
X168578683Y-66592200D02*
X168435826Y-66639819D01*
X168435826Y-66639819D02*
X168340588Y-66639819D01*
X168340588Y-66639819D02*
X168197731Y-66592200D01*
X168197731Y-66592200D02*
X168102493Y-66496961D01*
X168102493Y-66496961D02*
X168054874Y-66401723D01*
X168054874Y-66401723D02*
X168007255Y-66211247D01*
X168007255Y-66211247D02*
X168007255Y-66068390D01*
X168007255Y-66068390D02*
X168054874Y-65877914D01*
X168054874Y-65877914D02*
X168102493Y-65782676D01*
X168102493Y-65782676D02*
X168197731Y-65687438D01*
X168197731Y-65687438D02*
X168340588Y-65639819D01*
X168340588Y-65639819D02*
X168435826Y-65639819D01*
X168435826Y-65639819D02*
X168578683Y-65687438D01*
X168578683Y-65687438D02*
X168626302Y-65735057D01*
X169054874Y-66116009D02*
X169388207Y-66116009D01*
X169531064Y-66639819D02*
X169054874Y-66639819D01*
X169054874Y-66639819D02*
X169054874Y-65639819D01*
X169054874Y-65639819D02*
X169531064Y-65639819D01*
X169912017Y-66592200D02*
X170054874Y-66639819D01*
X170054874Y-66639819D02*
X170292969Y-66639819D01*
X170292969Y-66639819D02*
X170388207Y-66592200D01*
X170388207Y-66592200D02*
X170435826Y-66544580D01*
X170435826Y-66544580D02*
X170483445Y-66449342D01*
X170483445Y-66449342D02*
X170483445Y-66354104D01*
X170483445Y-66354104D02*
X170435826Y-66258866D01*
X170435826Y-66258866D02*
X170388207Y-66211247D01*
X170388207Y-66211247D02*
X170292969Y-66163628D01*
X170292969Y-66163628D02*
X170102493Y-66116009D01*
X170102493Y-66116009D02*
X170007255Y-66068390D01*
X170007255Y-66068390D02*
X169959636Y-66020771D01*
X169959636Y-66020771D02*
X169912017Y-65925533D01*
X169912017Y-65925533D02*
X169912017Y-65830295D01*
X169912017Y-65830295D02*
X169959636Y-65735057D01*
X169959636Y-65735057D02*
X170007255Y-65687438D01*
X170007255Y-65687438D02*
X170102493Y-65639819D01*
X170102493Y-65639819D02*
X170340588Y-65639819D01*
X170340588Y-65639819D02*
X170483445Y-65687438D01*
D11*
X214507217Y-64696895D02*
X214126265Y-64696895D01*
X214126265Y-64696895D02*
X214126265Y-63896895D01*
X214773884Y-64696895D02*
X214773884Y-63896895D01*
X214773884Y-63896895D02*
X214964360Y-63896895D01*
X214964360Y-63896895D02*
X215078646Y-63934990D01*
X215078646Y-63934990D02*
X215154836Y-64011180D01*
X215154836Y-64011180D02*
X215192931Y-64087371D01*
X215192931Y-64087371D02*
X215231027Y-64239752D01*
X215231027Y-64239752D02*
X215231027Y-64354038D01*
X215231027Y-64354038D02*
X215192931Y-64506419D01*
X215192931Y-64506419D02*
X215154836Y-64582609D01*
X215154836Y-64582609D02*
X215078646Y-64658800D01*
X215078646Y-64658800D02*
X214964360Y-64696895D01*
X214964360Y-64696895D02*
X214773884Y-64696895D01*
X215726265Y-63896895D02*
X215878646Y-63896895D01*
X215878646Y-63896895D02*
X215954836Y-63934990D01*
X215954836Y-63934990D02*
X216031027Y-64011180D01*
X216031027Y-64011180D02*
X216069122Y-64163561D01*
X216069122Y-64163561D02*
X216069122Y-64430228D01*
X216069122Y-64430228D02*
X216031027Y-64582609D01*
X216031027Y-64582609D02*
X215954836Y-64658800D01*
X215954836Y-64658800D02*
X215878646Y-64696895D01*
X215878646Y-64696895D02*
X215726265Y-64696895D01*
X215726265Y-64696895D02*
X215650074Y-64658800D01*
X215650074Y-64658800D02*
X215573884Y-64582609D01*
X215573884Y-64582609D02*
X215535788Y-64430228D01*
X215535788Y-64430228D02*
X215535788Y-64163561D01*
X215535788Y-64163561D02*
X215573884Y-64011180D01*
X215573884Y-64011180D02*
X215650074Y-63934990D01*
X215650074Y-63934990D02*
X215726265Y-63896895D01*
X219732931Y-64287847D02*
X219466265Y-64287847D01*
X219466265Y-64706895D02*
X219466265Y-63906895D01*
X219466265Y-63906895D02*
X219847217Y-63906895D01*
X220151979Y-64706895D02*
X220151979Y-63906895D01*
X220151979Y-63906895D02*
X220456741Y-63906895D01*
X220456741Y-63906895D02*
X220532931Y-63944990D01*
X220532931Y-63944990D02*
X220571026Y-63983085D01*
X220571026Y-63983085D02*
X220609122Y-64059276D01*
X220609122Y-64059276D02*
X220609122Y-64173561D01*
X220609122Y-64173561D02*
X220571026Y-64249752D01*
X220571026Y-64249752D02*
X220532931Y-64287847D01*
X220532931Y-64287847D02*
X220456741Y-64325942D01*
X220456741Y-64325942D02*
X220151979Y-64325942D01*
X221371026Y-63944990D02*
X221294836Y-63906895D01*
X221294836Y-63906895D02*
X221180550Y-63906895D01*
X221180550Y-63906895D02*
X221066264Y-63944990D01*
X221066264Y-63944990D02*
X220990074Y-64021180D01*
X220990074Y-64021180D02*
X220951979Y-64097371D01*
X220951979Y-64097371D02*
X220913883Y-64249752D01*
X220913883Y-64249752D02*
X220913883Y-64364038D01*
X220913883Y-64364038D02*
X220951979Y-64516419D01*
X220951979Y-64516419D02*
X220990074Y-64592609D01*
X220990074Y-64592609D02*
X221066264Y-64668800D01*
X221066264Y-64668800D02*
X221180550Y-64706895D01*
X221180550Y-64706895D02*
X221256741Y-64706895D01*
X221256741Y-64706895D02*
X221371026Y-64668800D01*
X221371026Y-64668800D02*
X221409122Y-64630704D01*
X221409122Y-64630704D02*
X221409122Y-64364038D01*
X221409122Y-64364038D02*
X221256741Y-64364038D01*
X221713883Y-64478323D02*
X222094836Y-64478323D01*
X221637693Y-64706895D02*
X221904360Y-63906895D01*
X221904360Y-63906895D02*
X222171026Y-64706895D01*
D10*
X173119990Y-79283112D02*
X173072371Y-79425969D01*
X173072371Y-79425969D02*
X173024752Y-79473588D01*
X173024752Y-79473588D02*
X172929514Y-79521207D01*
X172929514Y-79521207D02*
X172786657Y-79521207D01*
X172786657Y-79521207D02*
X172691419Y-79473588D01*
X172691419Y-79473588D02*
X172643800Y-79425969D01*
X172643800Y-79425969D02*
X172596180Y-79330731D01*
X172596180Y-79330731D02*
X172596180Y-78949779D01*
X172596180Y-78949779D02*
X173596180Y-78949779D01*
X173596180Y-78949779D02*
X173596180Y-79283112D01*
X173596180Y-79283112D02*
X173548561Y-79378350D01*
X173548561Y-79378350D02*
X173500942Y-79425969D01*
X173500942Y-79425969D02*
X173405704Y-79473588D01*
X173405704Y-79473588D02*
X173310466Y-79473588D01*
X173310466Y-79473588D02*
X173215228Y-79425969D01*
X173215228Y-79425969D02*
X173167609Y-79378350D01*
X173167609Y-79378350D02*
X173119990Y-79283112D01*
X173119990Y-79283112D02*
X173119990Y-78949779D01*
X172596180Y-80473588D02*
X172596180Y-79902160D01*
X172596180Y-80187874D02*
X173596180Y-80187874D01*
X173596180Y-80187874D02*
X173453323Y-80092636D01*
X173453323Y-80092636D02*
X173358085Y-79997398D01*
X173358085Y-79997398D02*
X173310466Y-79902160D01*
X172881895Y-73060160D02*
X172881895Y-73536350D01*
X172596180Y-72964922D02*
X173596180Y-73298255D01*
X173596180Y-73298255D02*
X172596180Y-73631588D01*
X172596180Y-74488731D02*
X172596180Y-73917303D01*
X172596180Y-74203017D02*
X173596180Y-74203017D01*
X173596180Y-74203017D02*
X173453323Y-74107779D01*
X173453323Y-74107779D02*
X173358085Y-74012541D01*
X173358085Y-74012541D02*
X173310466Y-73917303D01*
X180168779Y-75434819D02*
X180168779Y-74434819D01*
X180740207Y-75434819D02*
X180311636Y-74863390D01*
X180740207Y-74434819D02*
X180168779Y-75006247D01*
X176876779Y-88149819D02*
X176876779Y-87149819D01*
X177448207Y-88149819D02*
X177019636Y-87578390D01*
X177448207Y-87149819D02*
X176876779Y-87721247D01*
X186137779Y-80006819D02*
X186137779Y-79006819D01*
X186709207Y-80006819D02*
X186280636Y-79435390D01*
X186709207Y-79006819D02*
X186137779Y-79578247D01*
X192549819Y-80183220D02*
X191549819Y-80183220D01*
X192549819Y-79611792D02*
X191978390Y-80040363D01*
X191549819Y-79611792D02*
X192121247Y-80183220D01*
X184781819Y-80943220D02*
X183781819Y-80943220D01*
X184781819Y-80371792D02*
X184210390Y-80800363D01*
X183781819Y-80371792D02*
X184353247Y-80943220D01*
X188866779Y-87329819D02*
X188866779Y-86329819D01*
X189438207Y-87329819D02*
X189009636Y-86758390D01*
X189438207Y-86329819D02*
X188866779Y-86901247D01*
X213614649Y-69220180D02*
X213805125Y-69220180D01*
X213805125Y-69220180D02*
X213900363Y-69172561D01*
X213900363Y-69172561D02*
X213947982Y-69124942D01*
X213947982Y-69124942D02*
X214043220Y-68982085D01*
X214043220Y-68982085D02*
X214090839Y-68791609D01*
X214090839Y-68791609D02*
X214090839Y-68410657D01*
X214090839Y-68410657D02*
X214043220Y-68315419D01*
X214043220Y-68315419D02*
X213995601Y-68267800D01*
X213995601Y-68267800D02*
X213900363Y-68220180D01*
X213900363Y-68220180D02*
X213709887Y-68220180D01*
X213709887Y-68220180D02*
X213614649Y-68267800D01*
X213614649Y-68267800D02*
X213567030Y-68315419D01*
X213567030Y-68315419D02*
X213519411Y-68410657D01*
X213519411Y-68410657D02*
X213519411Y-68648752D01*
X213519411Y-68648752D02*
X213567030Y-68743990D01*
X213567030Y-68743990D02*
X213614649Y-68791609D01*
X213614649Y-68791609D02*
X213709887Y-68839228D01*
X213709887Y-68839228D02*
X213900363Y-68839228D01*
X213900363Y-68839228D02*
X213995601Y-68791609D01*
X213995601Y-68791609D02*
X214043220Y-68743990D01*
X214043220Y-68743990D02*
X214090839Y-68648752D01*
X216738458Y-86310180D02*
X216071792Y-86310180D01*
X216071792Y-86310180D02*
X216500363Y-85310180D01*
X219524649Y-69180180D02*
X219715125Y-69180180D01*
X219715125Y-69180180D02*
X219810363Y-69132561D01*
X219810363Y-69132561D02*
X219857982Y-69084942D01*
X219857982Y-69084942D02*
X219953220Y-68942085D01*
X219953220Y-68942085D02*
X220000839Y-68751609D01*
X220000839Y-68751609D02*
X220000839Y-68370657D01*
X220000839Y-68370657D02*
X219953220Y-68275419D01*
X219953220Y-68275419D02*
X219905601Y-68227800D01*
X219905601Y-68227800D02*
X219810363Y-68180180D01*
X219810363Y-68180180D02*
X219619887Y-68180180D01*
X219619887Y-68180180D02*
X219524649Y-68227800D01*
X219524649Y-68227800D02*
X219477030Y-68275419D01*
X219477030Y-68275419D02*
X219429411Y-68370657D01*
X219429411Y-68370657D02*
X219429411Y-68608752D01*
X219429411Y-68608752D02*
X219477030Y-68703990D01*
X219477030Y-68703990D02*
X219524649Y-68751609D01*
X219524649Y-68751609D02*
X219619887Y-68799228D01*
X219619887Y-68799228D02*
X219810363Y-68799228D01*
X219810363Y-68799228D02*
X219905601Y-68751609D01*
X219905601Y-68751609D02*
X219953220Y-68703990D01*
X219953220Y-68703990D02*
X220000839Y-68608752D01*
X222508458Y-86390180D02*
X221841792Y-86390180D01*
X221841792Y-86390180D02*
X222270363Y-85390180D01*
X166236779Y-83238866D02*
X166998684Y-83238866D01*
X166617731Y-83619819D02*
X166617731Y-82857914D01*
X167379636Y-82619819D02*
X168046302Y-82619819D01*
X168046302Y-82619819D02*
X167379636Y-83619819D01*
X167379636Y-83619819D02*
X168046302Y-83619819D01*
X171946779Y-83118866D02*
X172708684Y-83118866D01*
X173375350Y-83023628D02*
X173375350Y-83499819D01*
X173042017Y-82499819D02*
X173375350Y-83023628D01*
X173375350Y-83023628D02*
X173708683Y-82499819D01*
X167416779Y-86728866D02*
X168178684Y-86728866D01*
X168559636Y-86109819D02*
X169226302Y-87109819D01*
X169226302Y-86109819D02*
X168559636Y-87109819D01*
D12*
X168978995Y-83120000D02*
G75*
G03*
X168978995Y-83120000I-98995J0D01*
G01*
D10*
X169432268Y-83120000D02*
G75*
G03*
X169432268Y-83120000I-552268J0D01*
G01*
X171610000Y-83130000D02*
X170930000Y-83510000D01*
X170910000Y-82710000D02*
X171610000Y-83130000D01*
X169432268Y-83120000D02*
X171610000Y-83130000D01*
X168880000Y-85770000D02*
X169270000Y-85170000D01*
X168880000Y-85770000D02*
X168500000Y-85150000D01*
X168880000Y-83672268D02*
X168880000Y-85770000D01*
X173658095Y-80524819D02*
X173658095Y-81334342D01*
X173658095Y-81334342D02*
X173705714Y-81429580D01*
X173705714Y-81429580D02*
X173753333Y-81477200D01*
X173753333Y-81477200D02*
X173848571Y-81524819D01*
X173848571Y-81524819D02*
X174039047Y-81524819D01*
X174039047Y-81524819D02*
X174134285Y-81477200D01*
X174134285Y-81477200D02*
X174181904Y-81429580D01*
X174181904Y-81429580D02*
X174229523Y-81334342D01*
X174229523Y-81334342D02*
X174229523Y-80524819D01*
X174658095Y-80620057D02*
X174705714Y-80572438D01*
X174705714Y-80572438D02*
X174800952Y-80524819D01*
X174800952Y-80524819D02*
X175039047Y-80524819D01*
X175039047Y-80524819D02*
X175134285Y-80572438D01*
X175134285Y-80572438D02*
X175181904Y-80620057D01*
X175181904Y-80620057D02*
X175229523Y-80715295D01*
X175229523Y-80715295D02*
X175229523Y-80810533D01*
X175229523Y-80810533D02*
X175181904Y-80953390D01*
X175181904Y-80953390D02*
X174610476Y-81524819D01*
X174610476Y-81524819D02*
X175229523Y-81524819D01*
X175175901Y-78672819D02*
X175175901Y-78910914D01*
X174937806Y-78815676D02*
X175175901Y-78910914D01*
X175175901Y-78910914D02*
X175413996Y-78815676D01*
X175033044Y-79101390D02*
X175175901Y-78910914D01*
X175175901Y-78910914D02*
X175318758Y-79101390D01*
X175175901Y-78672819D02*
X175175901Y-78910914D01*
X174937806Y-78815676D02*
X175175901Y-78910914D01*
X175175901Y-78910914D02*
X175413996Y-78815676D01*
X175033044Y-79101390D02*
X175175901Y-78910914D01*
X175175901Y-78910914D02*
X175318758Y-79101390D01*
X172428819Y-86947333D02*
X173143104Y-86947333D01*
X173143104Y-86947333D02*
X173285961Y-86994952D01*
X173285961Y-86994952D02*
X173381200Y-87090190D01*
X173381200Y-87090190D02*
X173428819Y-87233047D01*
X173428819Y-87233047D02*
X173428819Y-87328285D01*
X173428819Y-85947333D02*
X173428819Y-86518761D01*
X173428819Y-86233047D02*
X172428819Y-86233047D01*
X172428819Y-86233047D02*
X172571676Y-86328285D01*
X172571676Y-86328285D02*
X172666914Y-86423523D01*
X172666914Y-86423523D02*
X172714533Y-86518761D01*
X188137143Y-76614819D02*
X188137143Y-75614819D01*
X188137143Y-75614819D02*
X188518095Y-75614819D01*
X188518095Y-75614819D02*
X188613333Y-75662438D01*
X188613333Y-75662438D02*
X188660952Y-75710057D01*
X188660952Y-75710057D02*
X188708571Y-75805295D01*
X188708571Y-75805295D02*
X188708571Y-75948152D01*
X188708571Y-75948152D02*
X188660952Y-76043390D01*
X188660952Y-76043390D02*
X188613333Y-76091009D01*
X188613333Y-76091009D02*
X188518095Y-76138628D01*
X188518095Y-76138628D02*
X188137143Y-76138628D01*
X189327619Y-75614819D02*
X189518095Y-75614819D01*
X189518095Y-75614819D02*
X189613333Y-75662438D01*
X189613333Y-75662438D02*
X189708571Y-75757676D01*
X189708571Y-75757676D02*
X189756190Y-75948152D01*
X189756190Y-75948152D02*
X189756190Y-76281485D01*
X189756190Y-76281485D02*
X189708571Y-76471961D01*
X189708571Y-76471961D02*
X189613333Y-76567200D01*
X189613333Y-76567200D02*
X189518095Y-76614819D01*
X189518095Y-76614819D02*
X189327619Y-76614819D01*
X189327619Y-76614819D02*
X189232381Y-76567200D01*
X189232381Y-76567200D02*
X189137143Y-76471961D01*
X189137143Y-76471961D02*
X189089524Y-76281485D01*
X189089524Y-76281485D02*
X189089524Y-75948152D01*
X189089524Y-75948152D02*
X189137143Y-75757676D01*
X189137143Y-75757676D02*
X189232381Y-75662438D01*
X189232381Y-75662438D02*
X189327619Y-75614819D01*
X190041905Y-75614819D02*
X190613333Y-75614819D01*
X190327619Y-76614819D02*
X190327619Y-75614819D01*
X191470476Y-76614819D02*
X190899048Y-76614819D01*
X191184762Y-76614819D02*
X191184762Y-75614819D01*
X191184762Y-75614819D02*
X191089524Y-75757676D01*
X191089524Y-75757676D02*
X190994286Y-75852914D01*
X190994286Y-75852914D02*
X190899048Y-75900533D01*
X197597143Y-76524819D02*
X197597143Y-75524819D01*
X197597143Y-75524819D02*
X197978095Y-75524819D01*
X197978095Y-75524819D02*
X198073333Y-75572438D01*
X198073333Y-75572438D02*
X198120952Y-75620057D01*
X198120952Y-75620057D02*
X198168571Y-75715295D01*
X198168571Y-75715295D02*
X198168571Y-75858152D01*
X198168571Y-75858152D02*
X198120952Y-75953390D01*
X198120952Y-75953390D02*
X198073333Y-76001009D01*
X198073333Y-76001009D02*
X197978095Y-76048628D01*
X197978095Y-76048628D02*
X197597143Y-76048628D01*
X198787619Y-75524819D02*
X198978095Y-75524819D01*
X198978095Y-75524819D02*
X199073333Y-75572438D01*
X199073333Y-75572438D02*
X199168571Y-75667676D01*
X199168571Y-75667676D02*
X199216190Y-75858152D01*
X199216190Y-75858152D02*
X199216190Y-76191485D01*
X199216190Y-76191485D02*
X199168571Y-76381961D01*
X199168571Y-76381961D02*
X199073333Y-76477200D01*
X199073333Y-76477200D02*
X198978095Y-76524819D01*
X198978095Y-76524819D02*
X198787619Y-76524819D01*
X198787619Y-76524819D02*
X198692381Y-76477200D01*
X198692381Y-76477200D02*
X198597143Y-76381961D01*
X198597143Y-76381961D02*
X198549524Y-76191485D01*
X198549524Y-76191485D02*
X198549524Y-75858152D01*
X198549524Y-75858152D02*
X198597143Y-75667676D01*
X198597143Y-75667676D02*
X198692381Y-75572438D01*
X198692381Y-75572438D02*
X198787619Y-75524819D01*
X199501905Y-75524819D02*
X200073333Y-75524819D01*
X199787619Y-76524819D02*
X199787619Y-75524819D01*
X200359048Y-75620057D02*
X200406667Y-75572438D01*
X200406667Y-75572438D02*
X200501905Y-75524819D01*
X200501905Y-75524819D02*
X200740000Y-75524819D01*
X200740000Y-75524819D02*
X200835238Y-75572438D01*
X200835238Y-75572438D02*
X200882857Y-75620057D01*
X200882857Y-75620057D02*
X200930476Y-75715295D01*
X200930476Y-75715295D02*
X200930476Y-75810533D01*
X200930476Y-75810533D02*
X200882857Y-75953390D01*
X200882857Y-75953390D02*
X200311429Y-76524819D01*
X200311429Y-76524819D02*
X200930476Y-76524819D01*
X207937143Y-76584819D02*
X207937143Y-75584819D01*
X207937143Y-75584819D02*
X208318095Y-75584819D01*
X208318095Y-75584819D02*
X208413333Y-75632438D01*
X208413333Y-75632438D02*
X208460952Y-75680057D01*
X208460952Y-75680057D02*
X208508571Y-75775295D01*
X208508571Y-75775295D02*
X208508571Y-75918152D01*
X208508571Y-75918152D02*
X208460952Y-76013390D01*
X208460952Y-76013390D02*
X208413333Y-76061009D01*
X208413333Y-76061009D02*
X208318095Y-76108628D01*
X208318095Y-76108628D02*
X207937143Y-76108628D01*
X209127619Y-75584819D02*
X209318095Y-75584819D01*
X209318095Y-75584819D02*
X209413333Y-75632438D01*
X209413333Y-75632438D02*
X209508571Y-75727676D01*
X209508571Y-75727676D02*
X209556190Y-75918152D01*
X209556190Y-75918152D02*
X209556190Y-76251485D01*
X209556190Y-76251485D02*
X209508571Y-76441961D01*
X209508571Y-76441961D02*
X209413333Y-76537200D01*
X209413333Y-76537200D02*
X209318095Y-76584819D01*
X209318095Y-76584819D02*
X209127619Y-76584819D01*
X209127619Y-76584819D02*
X209032381Y-76537200D01*
X209032381Y-76537200D02*
X208937143Y-76441961D01*
X208937143Y-76441961D02*
X208889524Y-76251485D01*
X208889524Y-76251485D02*
X208889524Y-75918152D01*
X208889524Y-75918152D02*
X208937143Y-75727676D01*
X208937143Y-75727676D02*
X209032381Y-75632438D01*
X209032381Y-75632438D02*
X209127619Y-75584819D01*
X209841905Y-75584819D02*
X210413333Y-75584819D01*
X210127619Y-76584819D02*
X210127619Y-75584819D01*
X210651429Y-75584819D02*
X211270476Y-75584819D01*
X211270476Y-75584819D02*
X210937143Y-75965771D01*
X210937143Y-75965771D02*
X211080000Y-75965771D01*
X211080000Y-75965771D02*
X211175238Y-76013390D01*
X211175238Y-76013390D02*
X211222857Y-76061009D01*
X211222857Y-76061009D02*
X211270476Y-76156247D01*
X211270476Y-76156247D02*
X211270476Y-76394342D01*
X211270476Y-76394342D02*
X211222857Y-76489580D01*
X211222857Y-76489580D02*
X211175238Y-76537200D01*
X211175238Y-76537200D02*
X211080000Y-76584819D01*
X211080000Y-76584819D02*
X210794286Y-76584819D01*
X210794286Y-76584819D02*
X210699048Y-76537200D01*
X210699048Y-76537200D02*
X210651429Y-76489580D01*
X196394819Y-80322857D02*
X195918628Y-80656190D01*
X196394819Y-80894285D02*
X195394819Y-80894285D01*
X195394819Y-80894285D02*
X195394819Y-80513333D01*
X195394819Y-80513333D02*
X195442438Y-80418095D01*
X195442438Y-80418095D02*
X195490057Y-80370476D01*
X195490057Y-80370476D02*
X195585295Y-80322857D01*
X195585295Y-80322857D02*
X195728152Y-80322857D01*
X195728152Y-80322857D02*
X195823390Y-80370476D01*
X195823390Y-80370476D02*
X195871009Y-80418095D01*
X195871009Y-80418095D02*
X195918628Y-80513333D01*
X195918628Y-80513333D02*
X195918628Y-80894285D01*
X195394819Y-79989523D02*
X195394819Y-79370476D01*
X195394819Y-79370476D02*
X195775771Y-79703809D01*
X195775771Y-79703809D02*
X195775771Y-79560952D01*
X195775771Y-79560952D02*
X195823390Y-79465714D01*
X195823390Y-79465714D02*
X195871009Y-79418095D01*
X195871009Y-79418095D02*
X195966247Y-79370476D01*
X195966247Y-79370476D02*
X196204342Y-79370476D01*
X196204342Y-79370476D02*
X196299580Y-79418095D01*
X196299580Y-79418095D02*
X196347200Y-79465714D01*
X196347200Y-79465714D02*
X196394819Y-79560952D01*
X196394819Y-79560952D02*
X196394819Y-79846666D01*
X196394819Y-79846666D02*
X196347200Y-79941904D01*
X196347200Y-79941904D02*
X196299580Y-79989523D01*
X195394819Y-78751428D02*
X195394819Y-78656190D01*
X195394819Y-78656190D02*
X195442438Y-78560952D01*
X195442438Y-78560952D02*
X195490057Y-78513333D01*
X195490057Y-78513333D02*
X195585295Y-78465714D01*
X195585295Y-78465714D02*
X195775771Y-78418095D01*
X195775771Y-78418095D02*
X196013866Y-78418095D01*
X196013866Y-78418095D02*
X196204342Y-78465714D01*
X196204342Y-78465714D02*
X196299580Y-78513333D01*
X196299580Y-78513333D02*
X196347200Y-78560952D01*
X196347200Y-78560952D02*
X196394819Y-78656190D01*
X196394819Y-78656190D02*
X196394819Y-78751428D01*
X196394819Y-78751428D02*
X196347200Y-78846666D01*
X196347200Y-78846666D02*
X196299580Y-78894285D01*
X196299580Y-78894285D02*
X196204342Y-78941904D01*
X196204342Y-78941904D02*
X196013866Y-78989523D01*
X196013866Y-78989523D02*
X195775771Y-78989523D01*
X195775771Y-78989523D02*
X195585295Y-78941904D01*
X195585295Y-78941904D02*
X195490057Y-78894285D01*
X195490057Y-78894285D02*
X195442438Y-78846666D01*
X195442438Y-78846666D02*
X195394819Y-78751428D01*
X174671905Y-86534819D02*
X174671905Y-85534819D01*
X174671905Y-85534819D02*
X174910000Y-85534819D01*
X174910000Y-85534819D02*
X175052857Y-85582438D01*
X175052857Y-85582438D02*
X175148095Y-85677676D01*
X175148095Y-85677676D02*
X175195714Y-85772914D01*
X175195714Y-85772914D02*
X175243333Y-85963390D01*
X175243333Y-85963390D02*
X175243333Y-86106247D01*
X175243333Y-86106247D02*
X175195714Y-86296723D01*
X175195714Y-86296723D02*
X175148095Y-86391961D01*
X175148095Y-86391961D02*
X175052857Y-86487200D01*
X175052857Y-86487200D02*
X174910000Y-86534819D01*
X174910000Y-86534819D02*
X174671905Y-86534819D01*
X176148095Y-85534819D02*
X175671905Y-85534819D01*
X175671905Y-85534819D02*
X175624286Y-86011009D01*
X175624286Y-86011009D02*
X175671905Y-85963390D01*
X175671905Y-85963390D02*
X175767143Y-85915771D01*
X175767143Y-85915771D02*
X176005238Y-85915771D01*
X176005238Y-85915771D02*
X176100476Y-85963390D01*
X176100476Y-85963390D02*
X176148095Y-86011009D01*
X176148095Y-86011009D02*
X176195714Y-86106247D01*
X176195714Y-86106247D02*
X176195714Y-86344342D01*
X176195714Y-86344342D02*
X176148095Y-86439580D01*
X176148095Y-86439580D02*
X176100476Y-86487200D01*
X176100476Y-86487200D02*
X176005238Y-86534819D01*
X176005238Y-86534819D02*
X175767143Y-86534819D01*
X175767143Y-86534819D02*
X175671905Y-86487200D01*
X175671905Y-86487200D02*
X175624286Y-86439580D01*
X198467142Y-78114819D02*
X198133809Y-77638628D01*
X197895714Y-78114819D02*
X197895714Y-77114819D01*
X197895714Y-77114819D02*
X198276666Y-77114819D01*
X198276666Y-77114819D02*
X198371904Y-77162438D01*
X198371904Y-77162438D02*
X198419523Y-77210057D01*
X198419523Y-77210057D02*
X198467142Y-77305295D01*
X198467142Y-77305295D02*
X198467142Y-77448152D01*
X198467142Y-77448152D02*
X198419523Y-77543390D01*
X198419523Y-77543390D02*
X198371904Y-77591009D01*
X198371904Y-77591009D02*
X198276666Y-77638628D01*
X198276666Y-77638628D02*
X197895714Y-77638628D01*
X198848095Y-77210057D02*
X198895714Y-77162438D01*
X198895714Y-77162438D02*
X198990952Y-77114819D01*
X198990952Y-77114819D02*
X199229047Y-77114819D01*
X199229047Y-77114819D02*
X199324285Y-77162438D01*
X199324285Y-77162438D02*
X199371904Y-77210057D01*
X199371904Y-77210057D02*
X199419523Y-77305295D01*
X199419523Y-77305295D02*
X199419523Y-77400533D01*
X199419523Y-77400533D02*
X199371904Y-77543390D01*
X199371904Y-77543390D02*
X198800476Y-78114819D01*
X198800476Y-78114819D02*
X199419523Y-78114819D01*
X199752857Y-77114819D02*
X200419523Y-77114819D01*
X200419523Y-77114819D02*
X199990952Y-78114819D01*
X183479580Y-82646666D02*
X183527200Y-82694285D01*
X183527200Y-82694285D02*
X183574819Y-82837142D01*
X183574819Y-82837142D02*
X183574819Y-82932380D01*
X183574819Y-82932380D02*
X183527200Y-83075237D01*
X183527200Y-83075237D02*
X183431961Y-83170475D01*
X183431961Y-83170475D02*
X183336723Y-83218094D01*
X183336723Y-83218094D02*
X183146247Y-83265713D01*
X183146247Y-83265713D02*
X183003390Y-83265713D01*
X183003390Y-83265713D02*
X182812914Y-83218094D01*
X182812914Y-83218094D02*
X182717676Y-83170475D01*
X182717676Y-83170475D02*
X182622438Y-83075237D01*
X182622438Y-83075237D02*
X182574819Y-82932380D01*
X182574819Y-82932380D02*
X182574819Y-82837142D01*
X182574819Y-82837142D02*
X182622438Y-82694285D01*
X182622438Y-82694285D02*
X182670057Y-82646666D01*
X182574819Y-81741904D02*
X182574819Y-82218094D01*
X182574819Y-82218094D02*
X183051009Y-82265713D01*
X183051009Y-82265713D02*
X183003390Y-82218094D01*
X183003390Y-82218094D02*
X182955771Y-82122856D01*
X182955771Y-82122856D02*
X182955771Y-81884761D01*
X182955771Y-81884761D02*
X183003390Y-81789523D01*
X183003390Y-81789523D02*
X183051009Y-81741904D01*
X183051009Y-81741904D02*
X183146247Y-81694285D01*
X183146247Y-81694285D02*
X183384342Y-81694285D01*
X183384342Y-81694285D02*
X183479580Y-81741904D01*
X183479580Y-81741904D02*
X183527200Y-81789523D01*
X183527200Y-81789523D02*
X183574819Y-81884761D01*
X183574819Y-81884761D02*
X183574819Y-82122856D01*
X183574819Y-82122856D02*
X183527200Y-82218094D01*
X183527200Y-82218094D02*
X183479580Y-82265713D01*
X186314819Y-85738094D02*
X185314819Y-85738094D01*
X185314819Y-85738094D02*
X185314819Y-85499999D01*
X185314819Y-85499999D02*
X185362438Y-85357142D01*
X185362438Y-85357142D02*
X185457676Y-85261904D01*
X185457676Y-85261904D02*
X185552914Y-85214285D01*
X185552914Y-85214285D02*
X185743390Y-85166666D01*
X185743390Y-85166666D02*
X185886247Y-85166666D01*
X185886247Y-85166666D02*
X186076723Y-85214285D01*
X186076723Y-85214285D02*
X186171961Y-85261904D01*
X186171961Y-85261904D02*
X186267200Y-85357142D01*
X186267200Y-85357142D02*
X186314819Y-85499999D01*
X186314819Y-85499999D02*
X186314819Y-85738094D01*
X185314819Y-84833332D02*
X185314819Y-84214285D01*
X185314819Y-84214285D02*
X185695771Y-84547618D01*
X185695771Y-84547618D02*
X185695771Y-84404761D01*
X185695771Y-84404761D02*
X185743390Y-84309523D01*
X185743390Y-84309523D02*
X185791009Y-84261904D01*
X185791009Y-84261904D02*
X185886247Y-84214285D01*
X185886247Y-84214285D02*
X186124342Y-84214285D01*
X186124342Y-84214285D02*
X186219580Y-84261904D01*
X186219580Y-84261904D02*
X186267200Y-84309523D01*
X186267200Y-84309523D02*
X186314819Y-84404761D01*
X186314819Y-84404761D02*
X186314819Y-84690475D01*
X186314819Y-84690475D02*
X186267200Y-84785713D01*
X186267200Y-84785713D02*
X186219580Y-84833332D01*
X175474333Y-77448580D02*
X175426714Y-77496200D01*
X175426714Y-77496200D02*
X175283857Y-77543819D01*
X175283857Y-77543819D02*
X175188619Y-77543819D01*
X175188619Y-77543819D02*
X175045762Y-77496200D01*
X175045762Y-77496200D02*
X174950524Y-77400961D01*
X174950524Y-77400961D02*
X174902905Y-77305723D01*
X174902905Y-77305723D02*
X174855286Y-77115247D01*
X174855286Y-77115247D02*
X174855286Y-76972390D01*
X174855286Y-76972390D02*
X174902905Y-76781914D01*
X174902905Y-76781914D02*
X174950524Y-76686676D01*
X174950524Y-76686676D02*
X175045762Y-76591438D01*
X175045762Y-76591438D02*
X175188619Y-76543819D01*
X175188619Y-76543819D02*
X175283857Y-76543819D01*
X175283857Y-76543819D02*
X175426714Y-76591438D01*
X175426714Y-76591438D02*
X175474333Y-76639057D01*
X175807667Y-76543819D02*
X176474333Y-76543819D01*
X176474333Y-76543819D02*
X176045762Y-77543819D01*
X174429580Y-72396666D02*
X174477200Y-72444285D01*
X174477200Y-72444285D02*
X174524819Y-72587142D01*
X174524819Y-72587142D02*
X174524819Y-72682380D01*
X174524819Y-72682380D02*
X174477200Y-72825237D01*
X174477200Y-72825237D02*
X174381961Y-72920475D01*
X174381961Y-72920475D02*
X174286723Y-72968094D01*
X174286723Y-72968094D02*
X174096247Y-73015713D01*
X174096247Y-73015713D02*
X173953390Y-73015713D01*
X173953390Y-73015713D02*
X173762914Y-72968094D01*
X173762914Y-72968094D02*
X173667676Y-72920475D01*
X173667676Y-72920475D02*
X173572438Y-72825237D01*
X173572438Y-72825237D02*
X173524819Y-72682380D01*
X173524819Y-72682380D02*
X173524819Y-72587142D01*
X173524819Y-72587142D02*
X173572438Y-72444285D01*
X173572438Y-72444285D02*
X173620057Y-72396666D01*
X174524819Y-71444285D02*
X174524819Y-72015713D01*
X174524819Y-71729999D02*
X173524819Y-71729999D01*
X173524819Y-71729999D02*
X173667676Y-71825237D01*
X173667676Y-71825237D02*
X173762914Y-71920475D01*
X173762914Y-71920475D02*
X173810533Y-72015713D01*
X180857142Y-87914819D02*
X180523809Y-87438628D01*
X180285714Y-87914819D02*
X180285714Y-86914819D01*
X180285714Y-86914819D02*
X180666666Y-86914819D01*
X180666666Y-86914819D02*
X180761904Y-86962438D01*
X180761904Y-86962438D02*
X180809523Y-87010057D01*
X180809523Y-87010057D02*
X180857142Y-87105295D01*
X180857142Y-87105295D02*
X180857142Y-87248152D01*
X180857142Y-87248152D02*
X180809523Y-87343390D01*
X180809523Y-87343390D02*
X180761904Y-87391009D01*
X180761904Y-87391009D02*
X180666666Y-87438628D01*
X180666666Y-87438628D02*
X180285714Y-87438628D01*
X181190476Y-86914819D02*
X181809523Y-86914819D01*
X181809523Y-86914819D02*
X181476190Y-87295771D01*
X181476190Y-87295771D02*
X181619047Y-87295771D01*
X181619047Y-87295771D02*
X181714285Y-87343390D01*
X181714285Y-87343390D02*
X181761904Y-87391009D01*
X181761904Y-87391009D02*
X181809523Y-87486247D01*
X181809523Y-87486247D02*
X181809523Y-87724342D01*
X181809523Y-87724342D02*
X181761904Y-87819580D01*
X181761904Y-87819580D02*
X181714285Y-87867200D01*
X181714285Y-87867200D02*
X181619047Y-87914819D01*
X181619047Y-87914819D02*
X181333333Y-87914819D01*
X181333333Y-87914819D02*
X181238095Y-87867200D01*
X181238095Y-87867200D02*
X181190476Y-87819580D01*
X182190476Y-87010057D02*
X182238095Y-86962438D01*
X182238095Y-86962438D02*
X182333333Y-86914819D01*
X182333333Y-86914819D02*
X182571428Y-86914819D01*
X182571428Y-86914819D02*
X182666666Y-86962438D01*
X182666666Y-86962438D02*
X182714285Y-87010057D01*
X182714285Y-87010057D02*
X182761904Y-87105295D01*
X182761904Y-87105295D02*
X182761904Y-87200533D01*
X182761904Y-87200533D02*
X182714285Y-87343390D01*
X182714285Y-87343390D02*
X182142857Y-87914819D01*
X182142857Y-87914819D02*
X182761904Y-87914819D01*
X170889580Y-68156666D02*
X170937200Y-68204285D01*
X170937200Y-68204285D02*
X170984819Y-68347142D01*
X170984819Y-68347142D02*
X170984819Y-68442380D01*
X170984819Y-68442380D02*
X170937200Y-68585237D01*
X170937200Y-68585237D02*
X170841961Y-68680475D01*
X170841961Y-68680475D02*
X170746723Y-68728094D01*
X170746723Y-68728094D02*
X170556247Y-68775713D01*
X170556247Y-68775713D02*
X170413390Y-68775713D01*
X170413390Y-68775713D02*
X170222914Y-68728094D01*
X170222914Y-68728094D02*
X170127676Y-68680475D01*
X170127676Y-68680475D02*
X170032438Y-68585237D01*
X170032438Y-68585237D02*
X169984819Y-68442380D01*
X169984819Y-68442380D02*
X169984819Y-68347142D01*
X169984819Y-68347142D02*
X170032438Y-68204285D01*
X170032438Y-68204285D02*
X170080057Y-68156666D01*
X170080057Y-67775713D02*
X170032438Y-67728094D01*
X170032438Y-67728094D02*
X169984819Y-67632856D01*
X169984819Y-67632856D02*
X169984819Y-67394761D01*
X169984819Y-67394761D02*
X170032438Y-67299523D01*
X170032438Y-67299523D02*
X170080057Y-67251904D01*
X170080057Y-67251904D02*
X170175295Y-67204285D01*
X170175295Y-67204285D02*
X170270533Y-67204285D01*
X170270533Y-67204285D02*
X170413390Y-67251904D01*
X170413390Y-67251904D02*
X170984819Y-67823332D01*
X170984819Y-67823332D02*
X170984819Y-67204285D01*
X179379580Y-68276666D02*
X179427200Y-68324285D01*
X179427200Y-68324285D02*
X179474819Y-68467142D01*
X179474819Y-68467142D02*
X179474819Y-68562380D01*
X179474819Y-68562380D02*
X179427200Y-68705237D01*
X179427200Y-68705237D02*
X179331961Y-68800475D01*
X179331961Y-68800475D02*
X179236723Y-68848094D01*
X179236723Y-68848094D02*
X179046247Y-68895713D01*
X179046247Y-68895713D02*
X178903390Y-68895713D01*
X178903390Y-68895713D02*
X178712914Y-68848094D01*
X178712914Y-68848094D02*
X178617676Y-68800475D01*
X178617676Y-68800475D02*
X178522438Y-68705237D01*
X178522438Y-68705237D02*
X178474819Y-68562380D01*
X178474819Y-68562380D02*
X178474819Y-68467142D01*
X178474819Y-68467142D02*
X178522438Y-68324285D01*
X178522438Y-68324285D02*
X178570057Y-68276666D01*
X178474819Y-67943332D02*
X178474819Y-67324285D01*
X178474819Y-67324285D02*
X178855771Y-67657618D01*
X178855771Y-67657618D02*
X178855771Y-67514761D01*
X178855771Y-67514761D02*
X178903390Y-67419523D01*
X178903390Y-67419523D02*
X178951009Y-67371904D01*
X178951009Y-67371904D02*
X179046247Y-67324285D01*
X179046247Y-67324285D02*
X179284342Y-67324285D01*
X179284342Y-67324285D02*
X179379580Y-67371904D01*
X179379580Y-67371904D02*
X179427200Y-67419523D01*
X179427200Y-67419523D02*
X179474819Y-67514761D01*
X179474819Y-67514761D02*
X179474819Y-67800475D01*
X179474819Y-67800475D02*
X179427200Y-67895713D01*
X179427200Y-67895713D02*
X179379580Y-67943332D01*
X171534819Y-66051904D02*
X172344342Y-66051904D01*
X172344342Y-66051904D02*
X172439580Y-66004285D01*
X172439580Y-66004285D02*
X172487200Y-65956666D01*
X172487200Y-65956666D02*
X172534819Y-65861428D01*
X172534819Y-65861428D02*
X172534819Y-65670952D01*
X172534819Y-65670952D02*
X172487200Y-65575714D01*
X172487200Y-65575714D02*
X172439580Y-65528095D01*
X172439580Y-65528095D02*
X172344342Y-65480476D01*
X172344342Y-65480476D02*
X171534819Y-65480476D01*
X172534819Y-64480476D02*
X172534819Y-65051904D01*
X172534819Y-64766190D02*
X171534819Y-64766190D01*
X171534819Y-64766190D02*
X171677676Y-64861428D01*
X171677676Y-64861428D02*
X171772914Y-64956666D01*
X171772914Y-64956666D02*
X171820533Y-65051904D01*
X172594819Y-70109999D02*
X172832914Y-70109999D01*
X172737676Y-70348094D02*
X172832914Y-70109999D01*
X172832914Y-70109999D02*
X172737676Y-69871904D01*
X173023390Y-70252856D02*
X172832914Y-70109999D01*
X172832914Y-70109999D02*
X173023390Y-69967142D01*
X175483333Y-84319580D02*
X175435714Y-84367200D01*
X175435714Y-84367200D02*
X175292857Y-84414819D01*
X175292857Y-84414819D02*
X175197619Y-84414819D01*
X175197619Y-84414819D02*
X175054762Y-84367200D01*
X175054762Y-84367200D02*
X174959524Y-84271961D01*
X174959524Y-84271961D02*
X174911905Y-84176723D01*
X174911905Y-84176723D02*
X174864286Y-83986247D01*
X174864286Y-83986247D02*
X174864286Y-83843390D01*
X174864286Y-83843390D02*
X174911905Y-83652914D01*
X174911905Y-83652914D02*
X174959524Y-83557676D01*
X174959524Y-83557676D02*
X175054762Y-83462438D01*
X175054762Y-83462438D02*
X175197619Y-83414819D01*
X175197619Y-83414819D02*
X175292857Y-83414819D01*
X175292857Y-83414819D02*
X175435714Y-83462438D01*
X175435714Y-83462438D02*
X175483333Y-83510057D01*
X176340476Y-83748152D02*
X176340476Y-84414819D01*
X176102381Y-83367200D02*
X175864286Y-84081485D01*
X175864286Y-84081485D02*
X176483333Y-84081485D01*
X183399580Y-78946666D02*
X183447200Y-78994285D01*
X183447200Y-78994285D02*
X183494819Y-79137142D01*
X183494819Y-79137142D02*
X183494819Y-79232380D01*
X183494819Y-79232380D02*
X183447200Y-79375237D01*
X183447200Y-79375237D02*
X183351961Y-79470475D01*
X183351961Y-79470475D02*
X183256723Y-79518094D01*
X183256723Y-79518094D02*
X183066247Y-79565713D01*
X183066247Y-79565713D02*
X182923390Y-79565713D01*
X182923390Y-79565713D02*
X182732914Y-79518094D01*
X182732914Y-79518094D02*
X182637676Y-79470475D01*
X182637676Y-79470475D02*
X182542438Y-79375237D01*
X182542438Y-79375237D02*
X182494819Y-79232380D01*
X182494819Y-79232380D02*
X182494819Y-79137142D01*
X182494819Y-79137142D02*
X182542438Y-78994285D01*
X182542438Y-78994285D02*
X182590057Y-78946666D01*
X182494819Y-78089523D02*
X182494819Y-78279999D01*
X182494819Y-78279999D02*
X182542438Y-78375237D01*
X182542438Y-78375237D02*
X182590057Y-78422856D01*
X182590057Y-78422856D02*
X182732914Y-78518094D01*
X182732914Y-78518094D02*
X182923390Y-78565713D01*
X182923390Y-78565713D02*
X183304342Y-78565713D01*
X183304342Y-78565713D02*
X183399580Y-78518094D01*
X183399580Y-78518094D02*
X183447200Y-78470475D01*
X183447200Y-78470475D02*
X183494819Y-78375237D01*
X183494819Y-78375237D02*
X183494819Y-78184761D01*
X183494819Y-78184761D02*
X183447200Y-78089523D01*
X183447200Y-78089523D02*
X183399580Y-78041904D01*
X183399580Y-78041904D02*
X183304342Y-77994285D01*
X183304342Y-77994285D02*
X183066247Y-77994285D01*
X183066247Y-77994285D02*
X182971009Y-78041904D01*
X182971009Y-78041904D02*
X182923390Y-78089523D01*
X182923390Y-78089523D02*
X182875771Y-78184761D01*
X182875771Y-78184761D02*
X182875771Y-78375237D01*
X182875771Y-78375237D02*
X182923390Y-78470475D01*
X182923390Y-78470475D02*
X182971009Y-78518094D01*
X182971009Y-78518094D02*
X183066247Y-78565713D01*
X194244819Y-82968094D02*
X193244819Y-82968094D01*
X193244819Y-82968094D02*
X193244819Y-82729999D01*
X193244819Y-82729999D02*
X193292438Y-82587142D01*
X193292438Y-82587142D02*
X193387676Y-82491904D01*
X193387676Y-82491904D02*
X193482914Y-82444285D01*
X193482914Y-82444285D02*
X193673390Y-82396666D01*
X193673390Y-82396666D02*
X193816247Y-82396666D01*
X193816247Y-82396666D02*
X194006723Y-82444285D01*
X194006723Y-82444285D02*
X194101961Y-82491904D01*
X194101961Y-82491904D02*
X194197200Y-82587142D01*
X194197200Y-82587142D02*
X194244819Y-82729999D01*
X194244819Y-82729999D02*
X194244819Y-82968094D01*
X193578152Y-81539523D02*
X194244819Y-81539523D01*
X193197200Y-81777618D02*
X193911485Y-82015713D01*
X193911485Y-82015713D02*
X193911485Y-81396666D01*
X198087142Y-80569580D02*
X198039523Y-80617200D01*
X198039523Y-80617200D02*
X197896666Y-80664819D01*
X197896666Y-80664819D02*
X197801428Y-80664819D01*
X197801428Y-80664819D02*
X197658571Y-80617200D01*
X197658571Y-80617200D02*
X197563333Y-80521961D01*
X197563333Y-80521961D02*
X197515714Y-80426723D01*
X197515714Y-80426723D02*
X197468095Y-80236247D01*
X197468095Y-80236247D02*
X197468095Y-80093390D01*
X197468095Y-80093390D02*
X197515714Y-79902914D01*
X197515714Y-79902914D02*
X197563333Y-79807676D01*
X197563333Y-79807676D02*
X197658571Y-79712438D01*
X197658571Y-79712438D02*
X197801428Y-79664819D01*
X197801428Y-79664819D02*
X197896666Y-79664819D01*
X197896666Y-79664819D02*
X198039523Y-79712438D01*
X198039523Y-79712438D02*
X198087142Y-79760057D01*
X199039523Y-80664819D02*
X198468095Y-80664819D01*
X198753809Y-80664819D02*
X198753809Y-79664819D01*
X198753809Y-79664819D02*
X198658571Y-79807676D01*
X198658571Y-79807676D02*
X198563333Y-79902914D01*
X198563333Y-79902914D02*
X198468095Y-79950533D01*
X199658571Y-79664819D02*
X199753809Y-79664819D01*
X199753809Y-79664819D02*
X199849047Y-79712438D01*
X199849047Y-79712438D02*
X199896666Y-79760057D01*
X199896666Y-79760057D02*
X199944285Y-79855295D01*
X199944285Y-79855295D02*
X199991904Y-80045771D01*
X199991904Y-80045771D02*
X199991904Y-80283866D01*
X199991904Y-80283866D02*
X199944285Y-80474342D01*
X199944285Y-80474342D02*
X199896666Y-80569580D01*
X199896666Y-80569580D02*
X199849047Y-80617200D01*
X199849047Y-80617200D02*
X199753809Y-80664819D01*
X199753809Y-80664819D02*
X199658571Y-80664819D01*
X199658571Y-80664819D02*
X199563333Y-80617200D01*
X199563333Y-80617200D02*
X199515714Y-80569580D01*
X199515714Y-80569580D02*
X199468095Y-80474342D01*
X199468095Y-80474342D02*
X199420476Y-80283866D01*
X199420476Y-80283866D02*
X199420476Y-80045771D01*
X199420476Y-80045771D02*
X199468095Y-79855295D01*
X199468095Y-79855295D02*
X199515714Y-79760057D01*
X199515714Y-79760057D02*
X199563333Y-79712438D01*
X199563333Y-79712438D02*
X199658571Y-79664819D01*
X174676905Y-75511819D02*
X174676905Y-74511819D01*
X174676905Y-74511819D02*
X174915000Y-74511819D01*
X174915000Y-74511819D02*
X175057857Y-74559438D01*
X175057857Y-74559438D02*
X175153095Y-74654676D01*
X175153095Y-74654676D02*
X175200714Y-74749914D01*
X175200714Y-74749914D02*
X175248333Y-74940390D01*
X175248333Y-74940390D02*
X175248333Y-75083247D01*
X175248333Y-75083247D02*
X175200714Y-75273723D01*
X175200714Y-75273723D02*
X175153095Y-75368961D01*
X175153095Y-75368961D02*
X175057857Y-75464200D01*
X175057857Y-75464200D02*
X174915000Y-75511819D01*
X174915000Y-75511819D02*
X174676905Y-75511819D01*
X176105476Y-74511819D02*
X175915000Y-74511819D01*
X175915000Y-74511819D02*
X175819762Y-74559438D01*
X175819762Y-74559438D02*
X175772143Y-74607057D01*
X175772143Y-74607057D02*
X175676905Y-74749914D01*
X175676905Y-74749914D02*
X175629286Y-74940390D01*
X175629286Y-74940390D02*
X175629286Y-75321342D01*
X175629286Y-75321342D02*
X175676905Y-75416580D01*
X175676905Y-75416580D02*
X175724524Y-75464200D01*
X175724524Y-75464200D02*
X175819762Y-75511819D01*
X175819762Y-75511819D02*
X176010238Y-75511819D01*
X176010238Y-75511819D02*
X176105476Y-75464200D01*
X176105476Y-75464200D02*
X176153095Y-75416580D01*
X176153095Y-75416580D02*
X176200714Y-75321342D01*
X176200714Y-75321342D02*
X176200714Y-75083247D01*
X176200714Y-75083247D02*
X176153095Y-74988009D01*
X176153095Y-74988009D02*
X176105476Y-74940390D01*
X176105476Y-74940390D02*
X176010238Y-74892771D01*
X176010238Y-74892771D02*
X175819762Y-74892771D01*
X175819762Y-74892771D02*
X175724524Y-74940390D01*
X175724524Y-74940390D02*
X175676905Y-74988009D01*
X175676905Y-74988009D02*
X175629286Y-75083247D01*
X192027142Y-78394819D02*
X191693809Y-77918628D01*
X191455714Y-78394819D02*
X191455714Y-77394819D01*
X191455714Y-77394819D02*
X191836666Y-77394819D01*
X191836666Y-77394819D02*
X191931904Y-77442438D01*
X191931904Y-77442438D02*
X191979523Y-77490057D01*
X191979523Y-77490057D02*
X192027142Y-77585295D01*
X192027142Y-77585295D02*
X192027142Y-77728152D01*
X192027142Y-77728152D02*
X191979523Y-77823390D01*
X191979523Y-77823390D02*
X191931904Y-77871009D01*
X191931904Y-77871009D02*
X191836666Y-77918628D01*
X191836666Y-77918628D02*
X191455714Y-77918628D01*
X192408095Y-77490057D02*
X192455714Y-77442438D01*
X192455714Y-77442438D02*
X192550952Y-77394819D01*
X192550952Y-77394819D02*
X192789047Y-77394819D01*
X192789047Y-77394819D02*
X192884285Y-77442438D01*
X192884285Y-77442438D02*
X192931904Y-77490057D01*
X192931904Y-77490057D02*
X192979523Y-77585295D01*
X192979523Y-77585295D02*
X192979523Y-77680533D01*
X192979523Y-77680533D02*
X192931904Y-77823390D01*
X192931904Y-77823390D02*
X192360476Y-78394819D01*
X192360476Y-78394819D02*
X192979523Y-78394819D01*
X193455714Y-78394819D02*
X193646190Y-78394819D01*
X193646190Y-78394819D02*
X193741428Y-78347200D01*
X193741428Y-78347200D02*
X193789047Y-78299580D01*
X193789047Y-78299580D02*
X193884285Y-78156723D01*
X193884285Y-78156723D02*
X193931904Y-77966247D01*
X193931904Y-77966247D02*
X193931904Y-77585295D01*
X193931904Y-77585295D02*
X193884285Y-77490057D01*
X193884285Y-77490057D02*
X193836666Y-77442438D01*
X193836666Y-77442438D02*
X193741428Y-77394819D01*
X193741428Y-77394819D02*
X193550952Y-77394819D01*
X193550952Y-77394819D02*
X193455714Y-77442438D01*
X193455714Y-77442438D02*
X193408095Y-77490057D01*
X193408095Y-77490057D02*
X193360476Y-77585295D01*
X193360476Y-77585295D02*
X193360476Y-77823390D01*
X193360476Y-77823390D02*
X193408095Y-77918628D01*
X193408095Y-77918628D02*
X193455714Y-77966247D01*
X193455714Y-77966247D02*
X193550952Y-78013866D01*
X193550952Y-78013866D02*
X193741428Y-78013866D01*
X193741428Y-78013866D02*
X193836666Y-77966247D01*
X193836666Y-77966247D02*
X193884285Y-77918628D01*
X193884285Y-77918628D02*
X193931904Y-77823390D01*
X215463333Y-87705180D02*
X215463333Y-86990895D01*
X215463333Y-86990895D02*
X215510952Y-86848038D01*
X215510952Y-86848038D02*
X215606190Y-86752800D01*
X215606190Y-86752800D02*
X215749047Y-86705180D01*
X215749047Y-86705180D02*
X215844285Y-86705180D01*
X214558571Y-87371847D02*
X214558571Y-86705180D01*
X214796666Y-87752800D02*
X215034761Y-87038514D01*
X215034761Y-87038514D02*
X214415714Y-87038514D01*
X205998095Y-77094819D02*
X205998095Y-77904342D01*
X205998095Y-77904342D02*
X206045714Y-77999580D01*
X206045714Y-77999580D02*
X206093333Y-78047200D01*
X206093333Y-78047200D02*
X206188571Y-78094819D01*
X206188571Y-78094819D02*
X206379047Y-78094819D01*
X206379047Y-78094819D02*
X206474285Y-78047200D01*
X206474285Y-78047200D02*
X206521904Y-77999580D01*
X206521904Y-77999580D02*
X206569523Y-77904342D01*
X206569523Y-77904342D02*
X206569523Y-77094819D01*
X207521904Y-77094819D02*
X207045714Y-77094819D01*
X207045714Y-77094819D02*
X206998095Y-77571009D01*
X206998095Y-77571009D02*
X207045714Y-77523390D01*
X207045714Y-77523390D02*
X207140952Y-77475771D01*
X207140952Y-77475771D02*
X207379047Y-77475771D01*
X207379047Y-77475771D02*
X207474285Y-77523390D01*
X207474285Y-77523390D02*
X207521904Y-77571009D01*
X207521904Y-77571009D02*
X207569523Y-77666247D01*
X207569523Y-77666247D02*
X207569523Y-77904342D01*
X207569523Y-77904342D02*
X207521904Y-77999580D01*
X207521904Y-77999580D02*
X207474285Y-78047200D01*
X207474285Y-78047200D02*
X207379047Y-78094819D01*
X207379047Y-78094819D02*
X207140952Y-78094819D01*
X207140952Y-78094819D02*
X207045714Y-78047200D01*
X207045714Y-78047200D02*
X206998095Y-77999580D01*
X203850000Y-77724819D02*
X203850000Y-77962914D01*
X203611905Y-77867676D02*
X203850000Y-77962914D01*
X203850000Y-77962914D02*
X204088095Y-77867676D01*
X203707143Y-78153390D02*
X203850000Y-77962914D01*
X203850000Y-77962914D02*
X203992857Y-78153390D01*
X191077142Y-86052819D02*
X190743809Y-85576628D01*
X190505714Y-86052819D02*
X190505714Y-85052819D01*
X190505714Y-85052819D02*
X190886666Y-85052819D01*
X190886666Y-85052819D02*
X190981904Y-85100438D01*
X190981904Y-85100438D02*
X191029523Y-85148057D01*
X191029523Y-85148057D02*
X191077142Y-85243295D01*
X191077142Y-85243295D02*
X191077142Y-85386152D01*
X191077142Y-85386152D02*
X191029523Y-85481390D01*
X191029523Y-85481390D02*
X190981904Y-85529009D01*
X190981904Y-85529009D02*
X190886666Y-85576628D01*
X190886666Y-85576628D02*
X190505714Y-85576628D01*
X191458095Y-85148057D02*
X191505714Y-85100438D01*
X191505714Y-85100438D02*
X191600952Y-85052819D01*
X191600952Y-85052819D02*
X191839047Y-85052819D01*
X191839047Y-85052819D02*
X191934285Y-85100438D01*
X191934285Y-85100438D02*
X191981904Y-85148057D01*
X191981904Y-85148057D02*
X192029523Y-85243295D01*
X192029523Y-85243295D02*
X192029523Y-85338533D01*
X192029523Y-85338533D02*
X191981904Y-85481390D01*
X191981904Y-85481390D02*
X191410476Y-86052819D01*
X191410476Y-86052819D02*
X192029523Y-86052819D01*
X192600952Y-85481390D02*
X192505714Y-85433771D01*
X192505714Y-85433771D02*
X192458095Y-85386152D01*
X192458095Y-85386152D02*
X192410476Y-85290914D01*
X192410476Y-85290914D02*
X192410476Y-85243295D01*
X192410476Y-85243295D02*
X192458095Y-85148057D01*
X192458095Y-85148057D02*
X192505714Y-85100438D01*
X192505714Y-85100438D02*
X192600952Y-85052819D01*
X192600952Y-85052819D02*
X192791428Y-85052819D01*
X192791428Y-85052819D02*
X192886666Y-85100438D01*
X192886666Y-85100438D02*
X192934285Y-85148057D01*
X192934285Y-85148057D02*
X192981904Y-85243295D01*
X192981904Y-85243295D02*
X192981904Y-85290914D01*
X192981904Y-85290914D02*
X192934285Y-85386152D01*
X192934285Y-85386152D02*
X192886666Y-85433771D01*
X192886666Y-85433771D02*
X192791428Y-85481390D01*
X192791428Y-85481390D02*
X192600952Y-85481390D01*
X192600952Y-85481390D02*
X192505714Y-85529009D01*
X192505714Y-85529009D02*
X192458095Y-85576628D01*
X192458095Y-85576628D02*
X192410476Y-85671866D01*
X192410476Y-85671866D02*
X192410476Y-85862342D01*
X192410476Y-85862342D02*
X192458095Y-85957580D01*
X192458095Y-85957580D02*
X192505714Y-86005200D01*
X192505714Y-86005200D02*
X192600952Y-86052819D01*
X192600952Y-86052819D02*
X192791428Y-86052819D01*
X192791428Y-86052819D02*
X192886666Y-86005200D01*
X192886666Y-86005200D02*
X192934285Y-85957580D01*
X192934285Y-85957580D02*
X192981904Y-85862342D01*
X192981904Y-85862342D02*
X192981904Y-85671866D01*
X192981904Y-85671866D02*
X192934285Y-85576628D01*
X192934285Y-85576628D02*
X192886666Y-85529009D01*
X192886666Y-85529009D02*
X192791428Y-85481390D01*
X186391905Y-78284819D02*
X186391905Y-77284819D01*
X186391905Y-77284819D02*
X186630000Y-77284819D01*
X186630000Y-77284819D02*
X186772857Y-77332438D01*
X186772857Y-77332438D02*
X186868095Y-77427676D01*
X186868095Y-77427676D02*
X186915714Y-77522914D01*
X186915714Y-77522914D02*
X186963333Y-77713390D01*
X186963333Y-77713390D02*
X186963333Y-77856247D01*
X186963333Y-77856247D02*
X186915714Y-78046723D01*
X186915714Y-78046723D02*
X186868095Y-78141961D01*
X186868095Y-78141961D02*
X186772857Y-78237200D01*
X186772857Y-78237200D02*
X186630000Y-78284819D01*
X186630000Y-78284819D02*
X186391905Y-78284819D01*
X187915714Y-78284819D02*
X187344286Y-78284819D01*
X187630000Y-78284819D02*
X187630000Y-77284819D01*
X187630000Y-77284819D02*
X187534762Y-77427676D01*
X187534762Y-77427676D02*
X187439524Y-77522914D01*
X187439524Y-77522914D02*
X187344286Y-77570533D01*
X199969580Y-85092857D02*
X200017200Y-85140476D01*
X200017200Y-85140476D02*
X200064819Y-85283333D01*
X200064819Y-85283333D02*
X200064819Y-85378571D01*
X200064819Y-85378571D02*
X200017200Y-85521428D01*
X200017200Y-85521428D02*
X199921961Y-85616666D01*
X199921961Y-85616666D02*
X199826723Y-85664285D01*
X199826723Y-85664285D02*
X199636247Y-85711904D01*
X199636247Y-85711904D02*
X199493390Y-85711904D01*
X199493390Y-85711904D02*
X199302914Y-85664285D01*
X199302914Y-85664285D02*
X199207676Y-85616666D01*
X199207676Y-85616666D02*
X199112438Y-85521428D01*
X199112438Y-85521428D02*
X199064819Y-85378571D01*
X199064819Y-85378571D02*
X199064819Y-85283333D01*
X199064819Y-85283333D02*
X199112438Y-85140476D01*
X199112438Y-85140476D02*
X199160057Y-85092857D01*
X200064819Y-84140476D02*
X200064819Y-84711904D01*
X200064819Y-84426190D02*
X199064819Y-84426190D01*
X199064819Y-84426190D02*
X199207676Y-84521428D01*
X199207676Y-84521428D02*
X199302914Y-84616666D01*
X199302914Y-84616666D02*
X199350533Y-84711904D01*
X200064819Y-83188095D02*
X200064819Y-83759523D01*
X200064819Y-83473809D02*
X199064819Y-83473809D01*
X199064819Y-83473809D02*
X199207676Y-83569047D01*
X199207676Y-83569047D02*
X199302914Y-83664285D01*
X199302914Y-83664285D02*
X199350533Y-83759523D01*
X221253333Y-87755180D02*
X221253333Y-87040895D01*
X221253333Y-87040895D02*
X221300952Y-86898038D01*
X221300952Y-86898038D02*
X221396190Y-86802800D01*
X221396190Y-86802800D02*
X221539047Y-86755180D01*
X221539047Y-86755180D02*
X221634285Y-86755180D01*
X220872380Y-87755180D02*
X220253333Y-87755180D01*
X220253333Y-87755180D02*
X220586666Y-87374228D01*
X220586666Y-87374228D02*
X220443809Y-87374228D01*
X220443809Y-87374228D02*
X220348571Y-87326609D01*
X220348571Y-87326609D02*
X220300952Y-87278990D01*
X220300952Y-87278990D02*
X220253333Y-87183752D01*
X220253333Y-87183752D02*
X220253333Y-86945657D01*
X220253333Y-86945657D02*
X220300952Y-86850419D01*
X220300952Y-86850419D02*
X220348571Y-86802800D01*
X220348571Y-86802800D02*
X220443809Y-86755180D01*
X220443809Y-86755180D02*
X220729523Y-86755180D01*
X220729523Y-86755180D02*
X220824761Y-86802800D01*
X220824761Y-86802800D02*
X220872380Y-86850419D01*
X194177142Y-86014819D02*
X193843809Y-85538628D01*
X193605714Y-86014819D02*
X193605714Y-85014819D01*
X193605714Y-85014819D02*
X193986666Y-85014819D01*
X193986666Y-85014819D02*
X194081904Y-85062438D01*
X194081904Y-85062438D02*
X194129523Y-85110057D01*
X194129523Y-85110057D02*
X194177142Y-85205295D01*
X194177142Y-85205295D02*
X194177142Y-85348152D01*
X194177142Y-85348152D02*
X194129523Y-85443390D01*
X194129523Y-85443390D02*
X194081904Y-85491009D01*
X194081904Y-85491009D02*
X193986666Y-85538628D01*
X193986666Y-85538628D02*
X193605714Y-85538628D01*
X194510476Y-85014819D02*
X195129523Y-85014819D01*
X195129523Y-85014819D02*
X194796190Y-85395771D01*
X194796190Y-85395771D02*
X194939047Y-85395771D01*
X194939047Y-85395771D02*
X195034285Y-85443390D01*
X195034285Y-85443390D02*
X195081904Y-85491009D01*
X195081904Y-85491009D02*
X195129523Y-85586247D01*
X195129523Y-85586247D02*
X195129523Y-85824342D01*
X195129523Y-85824342D02*
X195081904Y-85919580D01*
X195081904Y-85919580D02*
X195034285Y-85967200D01*
X195034285Y-85967200D02*
X194939047Y-86014819D01*
X194939047Y-86014819D02*
X194653333Y-86014819D01*
X194653333Y-86014819D02*
X194558095Y-85967200D01*
X194558095Y-85967200D02*
X194510476Y-85919580D01*
X196081904Y-86014819D02*
X195510476Y-86014819D01*
X195796190Y-86014819D02*
X195796190Y-85014819D01*
X195796190Y-85014819D02*
X195700952Y-85157676D01*
X195700952Y-85157676D02*
X195605714Y-85252914D01*
X195605714Y-85252914D02*
X195510476Y-85300533D01*
X188121905Y-83834819D02*
X188121905Y-82834819D01*
X188121905Y-82834819D02*
X188360000Y-82834819D01*
X188360000Y-82834819D02*
X188502857Y-82882438D01*
X188502857Y-82882438D02*
X188598095Y-82977676D01*
X188598095Y-82977676D02*
X188645714Y-83072914D01*
X188645714Y-83072914D02*
X188693333Y-83263390D01*
X188693333Y-83263390D02*
X188693333Y-83406247D01*
X188693333Y-83406247D02*
X188645714Y-83596723D01*
X188645714Y-83596723D02*
X188598095Y-83691961D01*
X188598095Y-83691961D02*
X188502857Y-83787200D01*
X188502857Y-83787200D02*
X188360000Y-83834819D01*
X188360000Y-83834819D02*
X188121905Y-83834819D01*
X189074286Y-82930057D02*
X189121905Y-82882438D01*
X189121905Y-82882438D02*
X189217143Y-82834819D01*
X189217143Y-82834819D02*
X189455238Y-82834819D01*
X189455238Y-82834819D02*
X189550476Y-82882438D01*
X189550476Y-82882438D02*
X189598095Y-82930057D01*
X189598095Y-82930057D02*
X189645714Y-83025295D01*
X189645714Y-83025295D02*
X189645714Y-83120533D01*
X189645714Y-83120533D02*
X189598095Y-83263390D01*
X189598095Y-83263390D02*
X189026667Y-83834819D01*
X189026667Y-83834819D02*
X189645714Y-83834819D01*
X222376666Y-65724819D02*
X222376666Y-66439104D01*
X222376666Y-66439104D02*
X222329047Y-66581961D01*
X222329047Y-66581961D02*
X222233809Y-66677200D01*
X222233809Y-66677200D02*
X222090952Y-66724819D01*
X222090952Y-66724819D02*
X221995714Y-66724819D01*
X222805238Y-65820057D02*
X222852857Y-65772438D01*
X222852857Y-65772438D02*
X222948095Y-65724819D01*
X222948095Y-65724819D02*
X223186190Y-65724819D01*
X223186190Y-65724819D02*
X223281428Y-65772438D01*
X223281428Y-65772438D02*
X223329047Y-65820057D01*
X223329047Y-65820057D02*
X223376666Y-65915295D01*
X223376666Y-65915295D02*
X223376666Y-66010533D01*
X223376666Y-66010533D02*
X223329047Y-66153390D01*
X223329047Y-66153390D02*
X222757619Y-66724819D01*
X222757619Y-66724819D02*
X223376666Y-66724819D01*
X177817142Y-72274819D02*
X177483809Y-71798628D01*
X177245714Y-72274819D02*
X177245714Y-71274819D01*
X177245714Y-71274819D02*
X177626666Y-71274819D01*
X177626666Y-71274819D02*
X177721904Y-71322438D01*
X177721904Y-71322438D02*
X177769523Y-71370057D01*
X177769523Y-71370057D02*
X177817142Y-71465295D01*
X177817142Y-71465295D02*
X177817142Y-71608152D01*
X177817142Y-71608152D02*
X177769523Y-71703390D01*
X177769523Y-71703390D02*
X177721904Y-71751009D01*
X177721904Y-71751009D02*
X177626666Y-71798628D01*
X177626666Y-71798628D02*
X177245714Y-71798628D01*
X178150476Y-71274819D02*
X178769523Y-71274819D01*
X178769523Y-71274819D02*
X178436190Y-71655771D01*
X178436190Y-71655771D02*
X178579047Y-71655771D01*
X178579047Y-71655771D02*
X178674285Y-71703390D01*
X178674285Y-71703390D02*
X178721904Y-71751009D01*
X178721904Y-71751009D02*
X178769523Y-71846247D01*
X178769523Y-71846247D02*
X178769523Y-72084342D01*
X178769523Y-72084342D02*
X178721904Y-72179580D01*
X178721904Y-72179580D02*
X178674285Y-72227200D01*
X178674285Y-72227200D02*
X178579047Y-72274819D01*
X178579047Y-72274819D02*
X178293333Y-72274819D01*
X178293333Y-72274819D02*
X178198095Y-72227200D01*
X178198095Y-72227200D02*
X178150476Y-72179580D01*
X179102857Y-71274819D02*
X179721904Y-71274819D01*
X179721904Y-71274819D02*
X179388571Y-71655771D01*
X179388571Y-71655771D02*
X179531428Y-71655771D01*
X179531428Y-71655771D02*
X179626666Y-71703390D01*
X179626666Y-71703390D02*
X179674285Y-71751009D01*
X179674285Y-71751009D02*
X179721904Y-71846247D01*
X179721904Y-71846247D02*
X179721904Y-72084342D01*
X179721904Y-72084342D02*
X179674285Y-72179580D01*
X179674285Y-72179580D02*
X179626666Y-72227200D01*
X179626666Y-72227200D02*
X179531428Y-72274819D01*
X179531428Y-72274819D02*
X179245714Y-72274819D01*
X179245714Y-72274819D02*
X179150476Y-72227200D01*
X179150476Y-72227200D02*
X179102857Y-72179580D01*
D13*
%TO.C,U2*%
X175983900Y-78320900D02*
X175983900Y-79057461D01*
X175983900Y-81978539D02*
X175983900Y-82715100D01*
X175983900Y-82715100D02*
X176720461Y-82715100D01*
X176720461Y-78320900D02*
X175983900Y-78320900D01*
X179641539Y-82715100D02*
X180378100Y-82715100D01*
X180378100Y-78320900D02*
X179641539Y-78320900D01*
X180378100Y-79057461D02*
X180378100Y-78320900D01*
X180378100Y-82715100D02*
X180378100Y-81978539D01*
G36*
X181059099Y-81033501D02*
G01*
X180805099Y-81033501D01*
X180805099Y-80652501D01*
X181059099Y-80652501D01*
X181059099Y-81033501D01*
G37*
%TO.C,J1*%
X169670026Y-71539100D02*
X167607174Y-71539100D01*
X165642426Y-71539100D02*
X163906200Y-71539100D01*
X163906200Y-71539100D02*
X163906200Y-81368900D01*
X167607174Y-81368900D02*
X169670026Y-81368900D01*
X163906200Y-81368900D02*
X165642426Y-81368900D01*
%TO.C,POT1*%
X190703200Y-75260200D02*
X190703200Y-65735200D01*
X190703200Y-65735200D02*
X189588140Y-65735200D01*
X187347860Y-65735200D02*
X184508140Y-65735200D01*
X187048140Y-75260200D02*
X190703200Y-75260200D01*
X182267860Y-65735200D02*
X181178200Y-65735200D01*
X181178200Y-75260200D02*
X184807860Y-75260200D01*
X181178200Y-65735200D02*
X181178200Y-75260200D01*
X189890400Y-65100200D02*
G75*
G03*
X189890400Y-65100200I-127000J0D01*
G01*
%TO.C,POT2*%
X200990200Y-75234800D02*
X200990200Y-65709800D01*
X200990200Y-65709800D02*
X199875140Y-65709800D01*
X197634860Y-65709800D02*
X194795140Y-65709800D01*
X197335140Y-75234800D02*
X200990200Y-75234800D01*
X192554860Y-65709800D02*
X191465200Y-65709800D01*
X191465200Y-75234800D02*
X195094860Y-75234800D01*
X191465200Y-65709800D02*
X191465200Y-75234800D01*
X200177400Y-65074800D02*
G75*
G03*
X200177400Y-65074800I-127000J0D01*
G01*
%TO.C,POT3*%
X211264500Y-75260200D02*
X211264500Y-65735200D01*
X211264500Y-65735200D02*
X210149440Y-65735200D01*
X207909160Y-65735200D02*
X205069440Y-65735200D01*
X207609440Y-75260200D02*
X211264500Y-75260200D01*
X202829160Y-65735200D02*
X201739500Y-65735200D01*
X201739500Y-75260200D02*
X205369160Y-75260200D01*
X201739500Y-65735200D02*
X201739500Y-75260200D01*
X210578700Y-65100200D02*
G75*
G03*
X210578700Y-65100200I-127000J0D01*
G01*
D14*
%TO.C,R30*%
X195042500Y-79462742D02*
X195042500Y-79937258D01*
X193997500Y-79462742D02*
X193997500Y-79937258D01*
%TO.C,D5*%
X176485000Y-85050000D02*
X176485000Y-86970000D01*
X176485000Y-86970000D02*
X179170000Y-86970000D01*
X179170000Y-85050000D02*
X176485000Y-85050000D01*
%TO.C,R27*%
X201819742Y-76947500D02*
X202294258Y-76947500D01*
X201819742Y-77992500D02*
X202294258Y-77992500D01*
%TO.C,C5*%
X182120000Y-81647420D02*
X182120000Y-81928580D01*
X181100000Y-81647420D02*
X181100000Y-81928580D01*
%TO.C,D3*%
X186960000Y-80665000D02*
X185040000Y-80665000D01*
X185040000Y-80665000D02*
X185040000Y-83350000D01*
X186960000Y-83350000D02*
X186960000Y-80665000D01*
%TO.C,C7*%
X178321580Y-77599000D02*
X178040420Y-77599000D01*
X178321580Y-76579000D02*
X178040420Y-76579000D01*
%TO.C,C1*%
X176024000Y-72249420D02*
X176024000Y-72530580D01*
X175004000Y-72249420D02*
X175004000Y-72530580D01*
%TO.C,R32*%
X181697258Y-86522500D02*
X181222742Y-86522500D01*
X181697258Y-85477500D02*
X181222742Y-85477500D01*
%TO.C,C2*%
X171448000Y-68212580D02*
X171448000Y-67931420D01*
X172468000Y-68212580D02*
X172468000Y-67931420D01*
%TO.C,C3*%
X177036000Y-68212580D02*
X177036000Y-67931420D01*
X178056000Y-68212580D02*
X178056000Y-67931420D01*
D13*
%TO.C,U1*%
X176479200Y-69291200D02*
X176479200Y-65836800D01*
X173024800Y-65836800D02*
X173024800Y-69291200D01*
D14*
%TO.C,C4*%
X178321580Y-84457000D02*
X178040420Y-84457000D01*
X178321580Y-83437000D02*
X178040420Y-83437000D01*
%TO.C,C6*%
X181100000Y-78880580D02*
X181100000Y-78599420D01*
X182120000Y-78880580D02*
X182120000Y-78599420D01*
%TO.C,D4*%
X192880000Y-80535000D02*
X190960000Y-80535000D01*
X190960000Y-80535000D02*
X190960000Y-83220000D01*
X192880000Y-83220000D02*
X192880000Y-80535000D01*
%TO.C,C10*%
X200419580Y-79504000D02*
X200138420Y-79504000D01*
X200419580Y-78484000D02*
X200138420Y-78484000D01*
%TO.C,D6*%
X179866000Y-75940000D02*
X179866000Y-74020000D01*
X179866000Y-74020000D02*
X177181000Y-74020000D01*
X177181000Y-75940000D02*
X179866000Y-75940000D01*
%TO.C,R29*%
X189707258Y-77057500D02*
X189232742Y-77057500D01*
X189707258Y-78102500D02*
X189232742Y-78102500D01*
D13*
%TO.C,J4*%
X212432900Y-85057600D02*
X217766900Y-85057600D01*
X217766900Y-85057600D02*
X217769900Y-69560600D01*
X212429900Y-69560600D02*
X212432900Y-85057600D01*
X217769900Y-69560600D02*
X212429900Y-69560600D01*
D15*
X214210900Y-85692600D02*
G75*
G03*
X214210900Y-85692600I-381000J0D01*
G01*
D13*
%TO.C,U5*%
X203767602Y-83832700D02*
X207458398Y-83832700D01*
X207458398Y-78473300D02*
X203767602Y-78473300D01*
G36*
X209671399Y-82968501D02*
G01*
X209417399Y-82968501D01*
X209417399Y-82587501D01*
X209671399Y-82587501D01*
X209671399Y-82968501D01*
G37*
D14*
%TO.C,R28*%
X191357258Y-86367500D02*
X190882742Y-86367500D01*
X191357258Y-87412500D02*
X190882742Y-87412500D01*
%TO.C,D1*%
X187015000Y-78600000D02*
X187015000Y-80520000D01*
X187015000Y-80520000D02*
X189700000Y-80520000D01*
X189700000Y-78600000D02*
X187015000Y-78600000D01*
%TO.C,C11*%
X201551000Y-84441420D02*
X201551000Y-84722580D01*
X200531000Y-84441420D02*
X200531000Y-84722580D01*
D13*
%TO.C,J3*%
X218274900Y-85057600D02*
X223608900Y-85057600D01*
X223608900Y-85057600D02*
X223611900Y-69560600D01*
X218271900Y-69560600D02*
X218274900Y-85057600D01*
X223611900Y-69560600D02*
X218271900Y-69560600D01*
D15*
X220052900Y-85692600D02*
G75*
G03*
X220052900Y-85692600I-381000J0D01*
G01*
D14*
%TO.C,R31*%
X194427258Y-87382500D02*
X193952742Y-87382500D01*
X194427258Y-86337500D02*
X193952742Y-86337500D01*
%TO.C,D2*%
X187470000Y-86020000D02*
X190155000Y-86020000D01*
X190155000Y-84100000D02*
X187470000Y-84100000D01*
X190155000Y-86020000D02*
X190155000Y-84100000D01*
%TO.C,J2*%
X221595000Y-64960000D02*
X221595000Y-66290000D01*
X220265000Y-64960000D02*
X221595000Y-64960000D01*
X218995000Y-64960000D02*
X213855000Y-64960000D01*
X218995000Y-64960000D02*
X218995000Y-67620000D01*
X213855000Y-64960000D02*
X213855000Y-67620000D01*
X218995000Y-67620000D02*
X213855000Y-67620000D01*
%TO.C,R33*%
X178727258Y-73702500D02*
X178252742Y-73702500D01*
X178727258Y-72657500D02*
X178252742Y-72657500D01*
%TD*%
M02*
