%TF.GenerationSoftware,KiCad,Pcbnew,7.0.6*%
%TF.CreationDate,2023-07-26T14:22:16+03:00*%
%TF.ProjectId,Accelerometru,41636365-6c65-4726-9f6d-657472752e6b,rev?*%
%TF.SameCoordinates,Original*%
%TF.FileFunction,Paste,Bot*%
%TF.FilePolarity,Positive*%
%FSLAX46Y46*%
G04 Gerber Fmt 4.6, Leading zero omitted, Abs format (unit mm)*
G04 Created by KiCad (PCBNEW 7.0.6) date 2023-07-26 14:22:16*
%MOMM*%
%LPD*%
G01*
G04 APERTURE LIST*
G04 Aperture macros list*
%AMRoundRect*
0 Rectangle with rounded corners*
0 $1 Rounding radius*
0 $2 $3 $4 $5 $6 $7 $8 $9 X,Y pos of 4 corners*
0 Add a 4 corners polygon primitive as box body*
4,1,4,$2,$3,$4,$5,$6,$7,$8,$9,$2,$3,0*
0 Add four circle primitives for the rounded corners*
1,1,$1+$1,$2,$3*
1,1,$1+$1,$4,$5*
1,1,$1+$1,$6,$7*
1,1,$1+$1,$8,$9*
0 Add four rect primitives between the rounded corners*
20,1,$1+$1,$2,$3,$4,$5,0*
20,1,$1+$1,$4,$5,$6,$7,0*
20,1,$1+$1,$6,$7,$8,$9,0*
20,1,$1+$1,$8,$9,$2,$3,0*%
G04 Aperture macros list end*
%ADD10RoundRect,0.200000X0.275000X-0.200000X0.275000X0.200000X-0.275000X0.200000X-0.275000X-0.200000X0*%
%ADD11RoundRect,0.200000X-0.275000X0.200000X-0.275000X-0.200000X0.275000X-0.200000X0.275000X0.200000X0*%
%ADD12RoundRect,0.200000X0.200000X0.275000X-0.200000X0.275000X-0.200000X-0.275000X0.200000X-0.275000X0*%
%ADD13R,1.969999X0.558000*%
%ADD14RoundRect,0.225000X0.225000X0.250000X-0.225000X0.250000X-0.225000X-0.250000X0.225000X-0.250000X0*%
G04 APERTURE END LIST*
D10*
%TO.C,R8*%
X188976000Y-79311000D03*
X188976000Y-77661000D03*
%TD*%
D11*
%TO.C,R24*%
X195707000Y-71565000D03*
X195707000Y-73215000D03*
%TD*%
%TO.C,R25*%
X197231000Y-70167000D03*
X197231000Y-68517000D03*
%TD*%
D10*
%TO.C,R18*%
X201168000Y-84518000D03*
X201168000Y-82868000D03*
%TD*%
D11*
%TO.C,R11*%
X199644000Y-77534000D03*
X199644000Y-79184000D03*
%TD*%
%TO.C,R5*%
X184404000Y-83122000D03*
X184404000Y-84772000D03*
%TD*%
D12*
%TO.C,R1*%
X174688000Y-75184000D03*
X173038000Y-75184000D03*
%TD*%
D10*
%TO.C,R6*%
X185928000Y-84772000D03*
X185928000Y-83122000D03*
%TD*%
D12*
%TO.C,R2*%
X174688000Y-78105000D03*
X173038000Y-78105000D03*
%TD*%
D11*
%TO.C,R9*%
X187452000Y-78423000D03*
X187452000Y-80073000D03*
%TD*%
D13*
%TO.C,U3*%
X191084200Y-85344000D03*
X191084200Y-84074000D03*
X191084200Y-82804000D03*
X191084200Y-81534000D03*
X191084200Y-80264000D03*
X191084200Y-78994000D03*
X191084200Y-77724000D03*
X196011800Y-77724000D03*
X196011800Y-78994000D03*
X196011800Y-80264000D03*
X196011800Y-81534000D03*
X196011800Y-82804000D03*
X196011800Y-84074000D03*
X196011800Y-85344000D03*
%TD*%
D10*
%TO.C,R7*%
X184404000Y-80073000D03*
X184404000Y-78423000D03*
%TD*%
D11*
%TO.C,R16*%
X198120000Y-84138000D03*
X198120000Y-85788000D03*
%TD*%
%TO.C,R23*%
X195707000Y-70167000D03*
X195707000Y-68517000D03*
%TD*%
%TO.C,R22*%
X186563000Y-68517000D03*
X186563000Y-70167000D03*
%TD*%
%TO.C,R13*%
X202780000Y-78005000D03*
X202780000Y-79655000D03*
%TD*%
D10*
%TO.C,R15*%
X199644000Y-85788000D03*
X199644000Y-84138000D03*
%TD*%
D13*
%TO.C,U4*%
X188671200Y-72771000D03*
X188671200Y-71501000D03*
X188671200Y-70231000D03*
X188671200Y-68961000D03*
X193598800Y-68961000D03*
X193598800Y-70231000D03*
X193598800Y-71501000D03*
X193598800Y-72771000D03*
%TD*%
D11*
%TO.C,R21*%
X185039000Y-68517000D03*
X185039000Y-70167000D03*
%TD*%
%TO.C,R14*%
X201240000Y-78005000D03*
X201240000Y-79655000D03*
%TD*%
%TO.C,R4*%
X189103000Y-85534000D03*
X189103000Y-83884000D03*
%TD*%
D10*
%TO.C,R17*%
X202692000Y-82868000D03*
X202692000Y-84518000D03*
%TD*%
%TO.C,R12*%
X198120000Y-79184000D03*
X198120000Y-77534000D03*
%TD*%
D14*
%TO.C,C8*%
X188989000Y-81534000D03*
X187439000Y-81534000D03*
%TD*%
%TO.C,C9*%
X192685000Y-74410000D03*
X191135000Y-74410000D03*
%TD*%
D10*
%TO.C,R26*%
X197231000Y-73215000D03*
X197231000Y-71565000D03*
%TD*%
D11*
%TO.C,R10*%
X185928000Y-78423000D03*
X185928000Y-80073000D03*
%TD*%
D10*
%TO.C,R19*%
X185039000Y-73215000D03*
X185039000Y-71565000D03*
%TD*%
D11*
%TO.C,R20*%
X186563000Y-71565000D03*
X186563000Y-73215000D03*
%TD*%
D10*
%TO.C,R3*%
X187579000Y-85534000D03*
X187579000Y-83884000D03*
%TD*%
M02*
